<svg width="1375" height="877" viewBox="0 0 1375 877" fill="none" xmlns="http://www.w3.org/2000/svg">
<path opacity="0.05" d="M621.485 970.417C653.304 1025.08 732.265 1025.08 764.083 970.417L1118.28 361.959C1150.3 306.959 1110.62 237.954 1046.98 237.954H338.585C274.945 237.954 235.269 306.959 267.285 361.959L621.485 970.417Z" stroke="white" stroke-opacity="0.3" stroke-width="5"/>
<path opacity="0.45" d="M500.561 193.221C584.872 51.456 790.128 51.456 874.439 193.221L1083.03 543.953C1169.25 688.934 1064.77 872.629 896.088 872.629H478.912C310.229 872.629 205.75 688.934 291.974 543.953L500.561 193.221Z" stroke="white" stroke-opacity="0.15" stroke-width="5"/>
<path opacity="0.1" d="M499.468 871.41C583.967 1012.08 787.861 1012.08 872.361 871.41L1072.09 538.916C1159.17 393.949 1054.76 209.417 885.645 209.417H486.184C317.072 209.417 212.654 393.949 299.737 538.917L499.468 871.41Z" stroke="white" stroke-opacity="0.3" stroke-width="5"/>
<path opacity="0.2" d="M1091.03 467.401C1117.18 512.905 1117.18 568.877 1091.03 614.381L952.641 855.208C926.332 900.991 877.557 929.217 824.753 929.217L549.191 929.217C496.387 929.217 447.611 900.991 421.302 855.208L282.913 614.381C256.764 568.877 256.763 512.905 282.913 467.401L421.302 226.574C447.611 180.791 496.387 152.565 549.191 152.565L824.753 152.565C877.557 152.565 926.332 180.791 952.641 226.574L1091.03 467.401Z" stroke="white" stroke-opacity="0.3" stroke-width="5"/>
<path d="M620.232 89.8474C651.964 34.7347 731.491 34.7347 763.223 89.8473L1118.23 706.424C1149.9 761.424 1110.2 830.089 1046.74 830.089H336.718C273.253 830.089 233.554 761.424 265.222 706.424L620.232 89.8474Z" stroke="white" stroke-opacity="0.2" stroke-width="5"/>
</svg>
