<svg width="5" height="18" viewBox="0 0 5 18" fill="none" xmlns="http://www.w3.org/2000/svg">
<path d="M0.578 16.808C0.194 16.424 0.00200009 15.9493 0.00200009 15.384C0.00200009 14.8187 0.194 14.344 0.578 13.96C0.962 13.576 1.43667 13.384 2.002 13.384C2.56733 13.384 3.042 13.576 3.426 13.96C3.81 14.344 4.002 14.8187 4.002 15.384C4.002 15.9493 3.81 16.424 3.426 16.808C3.042 17.192 2.56733 17.384 2.002 17.384C1.43667 17.384 0.962 17.192 0.578 16.808ZM0.578 3.464C0.194 3.08 0.00200009 2.60533 0.00200009 2.04C0.00200009 1.47467 0.194 0.999999 0.578 0.615999C0.962 0.231999 1.43667 0.039999 2.002 0.039999C2.56733 0.039999 3.042 0.231999 3.426 0.615999C3.81 0.999999 4.002 1.47467 4.002 2.04C4.002 2.60533 3.81 3.08 3.426 3.464C3.042 3.848 2.56733 4.04 2.002 4.04C1.43667 4.04 0.962 3.848 0.578 3.464Z" fill="white"/>
</svg>
