<svg width="113" height="105" viewBox="0 0 113 105" fill="none" xmlns="http://www.w3.org/2000/svg">
<path d="M107.056 0.441406L63.2236 32.8648L71.3829 13.7476L107.056 0.441406Z" fill="#E17726"/>
<path fill-rule="evenodd" clip-rule="evenodd" d="M107.422 0.240681C107.522 0.423392 107.471 0.651181 107.304 0.774791L63.4717 33.1982C63.3204 33.3101 63.1129 33.3068 62.9652 33.1902C62.8175 33.0735 62.7663 32.8723 62.8401 32.6992L70.9994 13.582C71.0442 13.4769 71.1302 13.3948 71.2372 13.3549L106.91 0.0487601C107.105 -0.0238815 107.323 0.0579694 107.422 0.240681ZM71.6963 14.0739L64.2099 31.6147L104.427 1.86502L71.6963 14.0739Z" fill="#E17726"/>
<path d="M5.96777 0.441406L49.3967 33.1732L41.6406 13.7713L5.96777 0.441406Z" fill="#E27625"/>
<path fill-rule="evenodd" clip-rule="evenodd" d="M5.60221 0.238931C5.70186 0.057277 5.91976 -0.0236789 6.11384 0.048844L41.7867 13.3787C41.8968 13.4199 41.9844 13.5055 42.028 13.6146L49.784 33.0165C49.8535 33.1902 49.7987 33.389 49.65 33.5026C49.5013 33.6162 49.2952 33.6169 49.1457 33.5043L5.71685 0.772552C5.55139 0.647848 5.50257 0.420585 5.60221 0.238931ZM8.51365 1.836L48.4552 31.9394L41.322 14.0955L8.51365 1.836Z" fill="#E27625"/>
<path d="M91.2819 75.6063L79.6123 93.419L104.588 100.297L111.751 76.0095L91.2819 75.6063Z" fill="#E27625"/>
<path fill-rule="evenodd" clip-rule="evenodd" d="M90.9341 75.3764C91.0127 75.2564 91.1476 75.1852 91.2911 75.188L111.76 75.5912C111.89 75.5938 112.012 75.6568 112.089 75.7618C112.165 75.8667 112.189 76.0014 112.152 76.1262L104.989 100.414C104.925 100.632 104.698 100.759 104.478 100.698L79.5026 93.8198C79.3741 93.7844 79.2703 93.6897 79.2232 93.565C79.1761 93.4403 79.1914 93.3006 79.2645 93.1891L90.9341 75.3764ZM91.5053 76.0265L80.2758 93.1676L104.305 99.7853L111.198 76.4144L91.5053 76.0265Z" fill="#E27625"/>
<path d="M1.34277 76.0095L8.45837 100.297L33.3867 93.419L21.7645 75.6063L1.34277 76.0095Z" fill="#E27625"/>
<path fill-rule="evenodd" clip-rule="evenodd" d="M21.7573 75.188C21.9011 75.1852 22.0363 75.2566 22.1149 75.3771L33.737 93.1898C33.8097 93.3013 33.8249 93.4408 33.7778 93.5653C33.7307 93.6898 33.627 93.7843 33.4987 93.8197L8.57033 100.698C8.35078 100.759 8.12322 100.632 8.05918 100.413L0.943583 76.1254C0.907059 76.0008 0.930716 75.8662 1.00757 75.7615C1.08442 75.6567 1.20569 75.5938 1.33557 75.5912L21.7573 75.188ZM1.89738 76.4144L8.74421 99.7849L32.7265 93.1675L21.5426 76.0265L1.89738 76.4144Z" fill="#E27625"/>
<path d="M32.0342 45.5304L25.1084 55.9903L49.8232 57.1051L48.9931 30.5165L32.0342 45.5304Z" fill="#E27625"/>
<path fill-rule="evenodd" clip-rule="evenodd" d="M49.1594 30.1322C49.3079 30.1963 49.4059 30.3404 49.411 30.5021L50.2411 57.0907C50.2447 57.2068 50.1998 57.3191 50.1171 57.4006C50.0344 57.4822 49.9215 57.5256 49.8055 57.5203L25.0906 56.4055C24.9406 56.3988 24.8058 56.3118 24.7377 56.178C24.6696 56.0441 24.6788 55.8839 24.7617 55.7587L31.6875 45.2987C31.7076 45.2684 31.7316 45.2408 31.7588 45.2167L48.7177 30.2028C48.8388 30.0956 49.0109 30.0681 49.1594 30.1322ZM32.3527 45.8049L25.8635 55.6055L49.3934 56.6668L48.605 31.4166L32.3527 45.8049Z" fill="#E27625"/>
<path d="M80.9889 45.5293L63.7929 30.2308L63.2236 57.1277L87.9385 56.013L80.9889 45.5293Z" fill="#E27625"/>
<path fill-rule="evenodd" clip-rule="evenodd" d="M63.6262 29.8487C63.7753 29.7837 63.9486 29.8113 64.0701 29.9194L81.2662 45.2179C81.293 45.2418 81.3167 45.2691 81.3366 45.2991L88.2861 55.7827C88.3692 55.9079 88.3784 56.0681 88.3103 56.2021C88.2423 56.336 88.1074 56.423 87.9573 56.4298L63.2425 57.5445C63.1272 57.5497 63.0149 57.5069 62.9323 57.4263C62.8498 57.3457 62.8043 57.2345 62.8067 57.1191L63.376 30.2221C63.3794 30.0595 63.4771 29.9137 63.6262 29.8487ZM64.1908 31.1431L63.6501 56.6912L87.184 55.6297L80.6713 45.8051L64.1908 31.1431Z" fill="#E27625"/>
<path d="M33.3623 93.418L48.3051 86.2076L35.4258 76.1746L33.3623 93.418Z" fill="#E27625"/>
<path fill-rule="evenodd" clip-rule="evenodd" d="M35.2664 75.7882C35.4052 75.7303 35.5645 75.7517 35.6832 75.8441L48.5624 85.8771C48.6762 85.9657 48.7361 86.1068 48.7208 86.2503C48.7055 86.3937 48.6172 86.519 48.4873 86.5817L33.5446 93.7922C33.4074 93.8584 33.245 93.8445 33.121 93.7559C32.997 93.6674 32.9311 93.5183 32.9493 93.367L35.0128 76.1235C35.0307 75.9742 35.1276 75.846 35.2664 75.7882ZM35.7532 76.956L33.8679 92.71L47.52 86.1224L35.7532 76.956Z" fill="#E27625"/>
<path d="M64.6953 86.2076L79.6144 93.418L77.5745 76.1746L64.6953 86.2076Z" fill="#E27625"/>
<path fill-rule="evenodd" clip-rule="evenodd" d="M77.7343 75.7883C77.8732 75.8463 77.9701 75.9746 77.9878 76.1241L80.0276 93.3676C80.0455 93.5188 79.9795 93.6678 79.8555 93.7562C79.7314 93.8446 79.5691 93.8583 79.432 93.792L64.5129 86.5816C64.3831 86.5188 64.2949 86.3935 64.2797 86.2501C64.2645 86.1068 64.3244 85.9657 64.4381 85.8771L77.3173 75.8441C77.4361 75.7516 77.5955 75.7303 77.7343 75.7883ZM65.4801 86.1226L79.1099 92.71L77.2464 76.9567L65.4801 86.1226Z" fill="#E27625"/>
<path d="M79.6144 93.4182L64.6953 86.2078L65.905 95.885L65.7864 99.9883L79.6144 93.4182Z" fill="#D5BFB2"/>
<path fill-rule="evenodd" clip-rule="evenodd" d="M64.4512 85.8691C64.5754 85.78 64.7383 85.766 64.8759 85.8325L79.7949 93.0429C79.9394 93.1128 80.031 93.2593 80.0305 93.4198C80.0299 93.5803 79.9374 93.7262 79.7924 93.7951L65.9644 100.365C65.8333 100.427 65.6792 100.417 65.5576 100.338C65.436 100.258 65.3644 100.122 65.3686 99.9764L65.4863 95.9051L64.2806 86.2597C64.2616 86.108 64.3271 85.9582 64.4512 85.8691ZM65.2033 86.9171L66.3179 95.8334C66.3205 95.8546 66.3215 95.8759 66.3209 95.8972L66.222 99.3193L78.6484 93.4152L65.2033 86.9171Z" fill="#D5BFB2"/>
<path d="M33.3623 93.4182L47.2377 99.9883L47.1428 95.885L48.3051 86.2078L33.3623 93.4182Z" fill="#D5BFB2"/>
<path fill-rule="evenodd" clip-rule="evenodd" d="M48.5485 85.8686C48.6725 85.9572 48.7383 86.1064 48.7202 86.2577L47.5615 95.9053L47.6557 99.9788C47.659 100.123 47.5872 100.26 47.4659 100.338C47.3445 100.417 47.191 100.427 47.0603 100.365L33.1849 93.7953C33.0397 93.7266 32.9469 93.5806 32.9463 93.4199C32.9457 93.2593 33.0374 93.1126 33.1821 93.0428L48.1249 85.8323C48.2621 85.7661 48.4245 85.78 48.5485 85.8686ZM34.3303 93.4149L46.8062 99.3222L46.7269 95.8948C46.7265 95.875 46.7274 95.8551 46.7298 95.8354L47.8012 86.9146L34.3303 93.4149Z" fill="#D5BFB2"/>
<path d="M47.4986 69.7692L35.0938 66.1402L43.8459 62.108L47.4986 69.7692Z" fill="#233447"/>
<path fill-rule="evenodd" clip-rule="evenodd" d="M43.6705 61.7296C43.8778 61.6341 44.1233 61.7229 44.2215 61.9289L47.8741 69.59C47.9449 69.7385 47.9218 69.9146 47.8153 70.0398C47.7087 70.1651 47.5384 70.2159 47.3806 70.1698L34.9757 66.5408C34.8088 66.492 34.6897 66.3447 34.6769 66.1712C34.6641 65.9977 34.7603 65.8345 34.9183 65.7618L43.6705 61.7296ZM36.2793 66.0531L46.72 69.1075L43.6457 62.6594L36.2793 66.0531Z" fill="#233447"/>
<path d="M65.5264 69.7692L69.179 62.108L77.9787 66.1402L65.5264 69.7692Z" fill="#233447"/>
<path fill-rule="evenodd" clip-rule="evenodd" d="M68.8007 61.9289C68.8988 61.7232 69.1437 61.6343 69.3509 61.7292L78.1505 65.7614C78.3088 65.834 78.4054 65.9973 78.3927 66.171C78.38 66.3447 78.2607 66.4922 78.0935 66.5409L65.6412 70.1699C65.4834 70.2159 65.3133 70.1649 65.2068 70.0397C65.1003 69.9145 65.0773 69.7384 65.148 69.59L68.8007 61.9289ZM69.3768 62.6586L66.3016 69.1086L76.7854 66.0534L69.3768 62.6586Z" fill="#233447"/>
<path d="M33.3624 93.419L35.5208 75.6063L21.7402 75.9858L33.3624 93.419Z" fill="#CC6228"/>
<path fill-rule="evenodd" clip-rule="evenodd" d="M35.8281 75.3241C35.9099 75.4138 35.9485 75.5347 35.9339 75.6551L33.7755 93.4679C33.7545 93.6411 33.6278 93.783 33.458 93.8234C33.2883 93.8638 33.1113 93.7942 33.0145 93.649L21.3923 76.2158C21.3081 76.0895 21.2992 75.9275 21.3689 75.7928C21.4387 75.658 21.5761 75.5718 21.7278 75.5676L35.5084 75.1881C35.6297 75.1847 35.7464 75.2344 35.8281 75.3241ZM22.5046 76.3806L33.0831 92.2483L35.0476 76.0352L22.5046 76.3806Z" fill="#CC6228"/>
<path d="M77.4805 75.6063L79.6151 93.419L91.2847 75.9858L77.4805 75.6063Z" fill="#CC6228"/>
<path fill-rule="evenodd" clip-rule="evenodd" d="M77.1695 75.3239C77.2512 75.2343 77.3678 75.1848 77.4891 75.1881L91.2933 75.5676C91.4451 75.5718 91.5827 75.6581 91.6524 75.7931C91.7221 75.9281 91.7129 76.0902 91.6284 76.2165L79.9588 93.6497C79.8618 93.7947 79.6847 93.8639 79.515 93.8232C79.3454 93.7826 79.219 93.6406 79.1982 93.4673L77.0635 75.6546C77.0491 75.5342 77.0878 75.4135 77.1695 75.3239ZM77.9492 76.0351L79.8923 92.2496L90.5148 76.3806L77.9492 76.0351Z" fill="#CC6228"/>
<path d="M87.9385 55.9895L63.2236 57.1043L65.5243 69.77L69.177 62.1089L77.9766 66.1411L87.9385 55.9895Z" fill="#CC6228"/>
<path fill-rule="evenodd" clip-rule="evenodd" d="M88.3193 55.8192C88.3892 55.9757 88.3562 56.159 88.2362 56.2814L78.2744 66.4329C78.1513 66.5584 77.9627 66.5932 77.803 66.52L69.3768 62.6589L65.9008 69.9493C65.823 70.1126 65.6486 70.2071 65.4693 70.1832C65.2899 70.1593 65.1464 70.0224 65.1141 69.8443L62.8134 57.1786C62.7918 57.0601 62.8226 56.9382 62.8976 56.8441C62.9726 56.7499 63.0847 56.6928 63.2049 56.6874L87.9197 55.5726C88.091 55.5649 88.2495 55.6627 88.3193 55.8192ZM63.7193 57.4991L65.7039 68.4243L68.8006 61.9292C68.8987 61.7235 69.1437 61.6346 69.3508 61.7295L77.8842 65.6397L86.8985 56.4536L63.7193 57.4991Z" fill="#CC6228"/>
<path d="M35.0933 66.1411L43.8454 62.1089L47.4981 69.77L49.7988 57.1043L25.084 55.9895L35.0933 66.1411Z" fill="#CC6228"/>
<path fill-rule="evenodd" clip-rule="evenodd" d="M24.703 55.8197C24.7728 55.6629 24.9314 55.5649 25.1028 55.5726L49.8177 56.6874C49.9379 56.6928 50.05 56.7499 50.125 56.8441C50.2 56.9382 50.2307 57.0601 50.2092 57.1786L47.9085 69.8443C47.8762 70.0224 47.7327 70.1593 47.5533 70.1832C47.374 70.2071 47.1996 70.1126 47.1217 69.9493L43.6462 62.6597L35.2678 66.5196C35.1083 66.5931 34.9197 66.5588 34.7964 66.4336L24.7871 56.2821C24.6666 56.1599 24.6333 55.9764 24.703 55.8197ZM26.1278 56.4538L35.1847 65.6395L43.671 61.7299C43.8783 61.6344 44.1238 61.7232 44.222 61.9292L47.3187 68.4243L49.3033 57.4991L26.1278 56.4538Z" fill="#CC6228"/>
<path d="M25.084 55.9895L35.449 76.1741L35.0933 66.1411L25.084 55.9895Z" fill="#E27525"/>
<path fill-rule="evenodd" clip-rule="evenodd" d="M24.8396 55.6514C25.0065 55.5307 25.2364 55.5498 25.381 55.6964L35.3903 65.848C35.4637 65.9224 35.5064 66.0216 35.5101 66.1261L35.8659 76.1591C35.8728 76.3543 35.7433 76.5281 35.5543 76.5774C35.3653 76.6267 35.1674 76.5381 35.0781 76.3643L24.7131 56.1798C24.619 55.9966 24.6727 55.7721 24.8396 55.6514ZM26.699 58.2211L34.9661 74.3202L34.6823 66.318L26.699 58.2211Z" fill="#E27525"/>
<path d="M77.9752 66.1411L77.5957 76.1741L87.9608 55.9895L77.9752 66.1411Z" fill="#E27525"/>
<path fill-rule="evenodd" clip-rule="evenodd" d="M88.2061 55.6512C88.3731 55.7719 88.4269 55.9965 88.3328 56.1798L77.9677 76.3643C77.8784 76.5383 77.6802 76.6268 77.4911 76.5773C77.3019 76.5278 77.1726 76.3535 77.18 76.1581L77.5595 66.1251C77.5634 66.0212 77.606 65.9225 77.6789 65.8484L87.6645 55.6968C87.809 55.5499 88.0391 55.5306 88.2061 55.6512ZM78.3869 66.3181L78.0845 74.3109L86.3419 58.2308L78.3869 66.3181Z" fill="#E27525"/>
<path d="M49.7997 57.1051L47.499 69.7709L50.3927 84.7373L51.0331 65.0271L49.7997 57.1051Z" fill="#E27525"/>
<path fill-rule="evenodd" clip-rule="evenodd" d="M49.8041 56.6877C50.0076 56.6903 50.1796 56.8394 50.2109 57.0406L51.4443 64.9626C51.4483 64.9883 51.4498 65.0143 51.449 65.0403L50.8086 84.7505C50.8017 84.9627 50.6365 85.1359 50.4248 85.1527C50.2131 85.1695 50.0226 85.0246 49.9823 84.8161L47.0886 69.8497C47.0788 69.7989 47.0785 69.7468 47.0878 69.696L49.3885 57.0302C49.4249 56.8299 49.6005 56.6851 49.8041 56.6877ZM47.9224 69.7681L50.0957 81.0084L50.6141 65.0523L49.7672 59.6124L47.9224 69.7681Z" fill="#E27525"/>
<path d="M63.2233 57.1051L62.0137 64.9797L62.6304 84.7373L65.524 69.7709L63.2233 57.1051Z" fill="#E27525"/>
<path fill-rule="evenodd" clip-rule="evenodd" d="M63.2187 56.6877C63.4224 56.6849 63.5983 56.8297 63.6347 57.0302L65.9354 69.696C65.9446 69.7468 65.9443 69.7989 65.9345 69.8497L63.0408 84.8161C63.0005 85.0247 62.8099 85.1696 62.5981 85.1527C62.3863 85.1357 62.2212 84.9623 62.2145 84.75L61.5979 64.9923C61.5971 64.9668 61.5986 64.9412 61.6025 64.916L62.8121 57.0414C62.8431 56.84 63.015 56.6905 63.2187 56.6877ZM63.2587 59.6276L62.4327 65.0047L62.9316 80.9873L65.1008 69.7681L63.2587 59.6276Z" fill="#E27525"/>
<path d="M65.5255 69.7698L62.6318 84.7362L64.7191 86.2068L77.5983 76.1738L77.9778 66.1408L65.5255 69.7698Z" fill="#F5841F"/>
<path fill-rule="evenodd" clip-rule="evenodd" d="M78.2344 65.8127C78.3401 65.8952 78.3997 66.0234 78.3946 66.1573L78.0151 76.1903C78.0105 76.3133 77.9518 76.4279 77.8547 76.5035L64.9754 86.5365C64.8306 86.6494 64.629 86.6542 64.479 86.5485L62.3917 85.0779C62.2575 84.9834 62.1913 84.8189 62.2224 84.6578L65.1161 69.6913C65.1458 69.5378 65.2588 69.4138 65.4089 69.3701L77.8612 65.7411C77.9899 65.7036 78.1287 65.7303 78.2344 65.8127ZM65.8867 70.0996L63.0926 84.5514L64.7067 85.6886L77.189 75.9648L77.5393 66.7038L65.8867 70.0996Z" fill="#F5841F"/>
<path d="M35.0938 66.1408L35.4495 76.1738L48.3288 86.2068L50.416 84.7362L47.4986 69.7698L35.0938 66.1408Z" fill="#F5841F"/>
<path fill-rule="evenodd" clip-rule="evenodd" d="M34.8369 65.8123C34.9426 65.7301 35.0814 65.7037 35.2099 65.7413L47.6148 69.3702C47.7645 69.414 47.8772 69.5376 47.907 69.6907L50.8244 84.6572C50.8559 84.8185 50.7896 84.9832 50.6553 85.0779L48.568 86.5485C48.418 86.6542 48.2164 86.6494 48.0715 86.5365L35.1923 76.5035C35.095 76.4277 35.0362 76.3126 35.0318 76.1893L34.676 66.1563C34.6713 66.0225 34.7311 65.8945 34.8369 65.8123ZM35.5301 66.704L35.8585 75.9652L48.3403 85.6886L49.9541 84.5516L47.1369 70.0995L35.5301 66.704Z" fill="#F5841F"/>
<path d="M65.786 99.9878L65.9046 95.8845L64.7661 94.9357H48.2105L47.1194 95.8845L47.2143 99.9878L33.3389 93.4177L38.2012 97.4025L48.0444 104.186H64.9084L74.7991 97.4025L79.614 93.4177L65.786 99.9878Z" fill="#C0AC9D"/>
<path fill-rule="evenodd" clip-rule="evenodd" d="M32.9856 93.1949C33.0983 93.0169 33.326 92.9509 33.5164 93.0411L46.7808 99.3218L46.7016 95.8944C46.6987 95.7704 46.7512 95.6515 46.8449 95.5701L47.9359 94.6213C48.0118 94.5553 48.109 94.519 48.2096 94.519H64.7652C64.8628 94.519 64.9572 94.5532 65.0322 94.6156L66.1707 95.5644C66.269 95.6463 66.3243 95.7689 66.3206 95.8968L66.2217 99.3189L79.4341 93.0413C79.6241 92.951 79.8517 93.0164 79.9648 93.1939C80.0779 93.3713 80.0411 93.6052 79.879 93.7393L75.0641 97.724C75.0544 97.732 75.0444 97.7396 75.0341 97.7467L65.1434 104.53C65.0739 104.578 64.9917 104.603 64.9075 104.603H48.0435C47.959 104.603 47.8765 104.578 47.8069 104.53L37.9636 97.7462C37.9541 97.7396 37.9449 97.7326 37.9359 97.7253L33.0736 93.7406C32.9107 93.607 32.8729 93.3729 32.9856 93.1949ZM36.2299 95.2488L38.4512 97.0692L48.1733 103.769H64.7782L74.5468 97.0695L76.7672 95.2319L65.9641 100.365C65.8329 100.427 65.6788 100.417 65.5572 100.337C65.4356 100.258 65.364 100.121 65.3682 99.976L65.481 96.0754L64.6142 95.3531H48.3655L47.54 96.0709L47.6303 99.9784C47.6337 100.123 47.5618 100.259 47.4405 100.338C47.3191 100.417 47.1657 100.427 47.0349 100.365L36.2299 95.2488Z" fill="#C0AC9D"/>
<path d="M64.6944 86.2071L62.6072 84.7366H50.392L48.3048 86.2071L47.1426 95.8843L48.2336 94.9356H64.7893L65.9278 95.8843L64.6944 86.2071Z" fill="#161616"/>
<path fill-rule="evenodd" clip-rule="evenodd" d="M50.1519 84.3958C50.2222 84.3463 50.3061 84.3197 50.3921 84.3197H62.6072C62.6932 84.3197 62.7771 84.3463 62.8474 84.3958L64.9347 85.8664C65.0304 85.9338 65.0934 86.0384 65.1082 86.1546L66.3415 95.8318C66.3632 96.0018 66.2786 96.1678 66.1283 96.2502C65.978 96.3326 65.7925 96.3146 65.6608 96.2049L64.6383 95.3528H48.3897L47.4163 96.1992C47.2862 96.3124 47.0998 96.3338 46.9474 96.253C46.795 96.1723 46.708 96.006 46.7286 95.8348L47.8908 86.1576C47.9049 86.0403 47.9681 85.9344 48.0647 85.8664L50.1519 84.3958ZM50.5243 85.1538L48.6968 86.4413L47.6858 94.8596L47.96 94.6211C48.0359 94.5551 48.1331 94.5187 48.2337 94.5187H64.7893C64.8869 94.5187 64.9814 94.5529 65.0563 94.6154L65.38 94.8852L64.304 86.4424L62.4751 85.1538H50.5243Z" fill="#161616"/>
<path d="M108.907 34.975L112.583 17.0674L107.033 0.41687L64.6953 31.7729L80.99 45.5298L103.997 52.2422L109.073 46.3125L106.867 44.7233L110.377 41.5213L107.697 39.4578L111.208 36.7776L108.907 34.975Z" fill="#763E1A"/>
<path fill-rule="evenodd" clip-rule="evenodd" d="M107.158 0.0193502C107.285 0.0595737 107.386 0.158411 107.428 0.285167L112.978 16.9357C113.001 17.0052 113.006 17.0796 112.991 17.1514L109.366 34.8061L111.464 36.4495C111.566 36.5291 111.625 36.6513 111.624 36.7804C111.623 36.9095 111.562 37.0309 111.46 37.1092L108.382 39.4594L110.631 41.191C110.729 41.2663 110.788 41.3809 110.793 41.5041C110.798 41.6273 110.749 41.7465 110.658 41.8296L107.527 44.6854L109.316 45.9743C109.41 46.0425 109.472 46.1472 109.486 46.2631C109.5 46.3789 109.465 46.4952 109.389 46.5839L104.313 52.5135C104.206 52.6381 104.037 52.6886 103.879 52.6427L80.8723 45.9303C80.8164 45.914 80.7646 45.8862 80.7201 45.8486L64.4254 32.0918C64.3279 32.0096 64.2735 31.8873 64.2776 31.7599C64.2816 31.6324 64.3437 31.5139 64.4462 31.438L106.784 0.081909C106.891 0.00238761 107.03 -0.0208733 107.158 0.0193502ZM65.3662 31.7945L81.1907 45.1543L103.855 51.7666L108.46 46.386L106.622 45.0619C106.52 44.9885 106.457 44.873 106.45 44.7475C106.443 44.6221 106.492 44.5001 106.585 44.4154L109.728 41.5485L107.442 39.7884C107.339 39.7093 107.279 39.5868 107.279 39.4571C107.28 39.3274 107.34 39.2052 107.443 39.1265L110.525 36.7735L108.649 35.3034C108.524 35.2059 108.466 35.0462 108.497 34.8913L112.151 17.0933L106.818 1.09438L65.3662 31.7945Z" fill="#763E1A"/>
<path d="M0.416992 17.0919L4.14082 34.9995L1.74524 36.7784L5.30304 39.4586L2.62283 41.5221L6.13319 44.7242L3.92736 46.3133L9.00315 52.243L32.0103 45.5306L48.305 31.7738L5.96716 0.441406L0.416992 17.0919Z" fill="#763E1A"/>
<path fill-rule="evenodd" clip-rule="evenodd" d="M5.84159 0.0417729C5.96897 0.00153429 6.10792 0.0247524 6.2153 0.104219L48.5531 31.4366C48.6556 31.5124 48.7178 31.631 48.7219 31.7585C48.7259 31.8859 48.6715 32.0082 48.5741 32.0905L32.2793 45.8473C32.2349 45.8848 32.183 45.9127 32.1271 45.929L9.12001 52.6414C8.96264 52.6873 8.79298 52.6367 8.68638 52.5122L3.61059 46.5825C3.53472 46.4939 3.49944 46.3776 3.51333 46.2617C3.52721 46.1459 3.58897 46.0412 3.68363 45.973L5.47265 44.6841L2.34183 41.8283C2.25072 41.7452 2.20106 41.626 2.2062 41.5028C2.21134 41.3796 2.27075 41.265 2.36846 41.1897L4.61478 39.4603L1.49435 37.1095C1.38935 37.0304 1.3278 36.9065 1.32825 36.775C1.3287 36.6435 1.39111 36.52 1.49666 36.4416L3.67832 34.8216L0.00873469 17.1749C-0.00626107 17.1027 -0.00189065 17.0279 0.0214014 16.9581L5.57157 0.307567C5.61381 0.180836 5.71421 0.0820114 5.84159 0.0417729ZM6.18111 1.11657L0.848251 17.1151L4.54919 34.9126C4.58226 35.0717 4.51995 35.2355 4.38951 35.3324L2.44159 36.7788L5.55403 39.1236C5.65801 39.2019 5.71945 39.3243 5.72013 39.4545C5.72081 39.5846 5.66067 39.7077 5.55751 39.7871L3.27138 41.5472L6.4143 44.4141C6.50713 44.4987 6.55683 44.6208 6.5496 44.7462C6.54237 44.8716 6.47897 44.9871 6.37702 45.0606L4.53913 46.3847L9.14491 51.7652L31.8087 45.153L47.633 31.7933L6.18111 1.11657Z" fill="#763E1A"/>
<path d="M104.02 52.2192L81.0124 45.5068L87.9383 55.9667L77.5732 76.1513L91.2589 75.9853H111.728L104.02 52.2192Z" fill="#F5841F"/>
<path fill-rule="evenodd" clip-rule="evenodd" d="M80.6777 45.2591C80.7815 45.1182 80.9623 45.0571 81.1303 45.1061L104.137 51.8185C104.27 51.8571 104.375 51.9588 104.417 52.0901L112.126 75.8562C112.167 75.9832 112.145 76.1222 112.066 76.2301C111.988 76.3381 111.863 76.402 111.729 76.402H91.2599L77.5793 76.568C77.4331 76.5697 77.2966 76.4948 77.2197 76.3704C77.1427 76.2461 77.1365 76.0905 77.2033 75.9604L87.4568 55.993L80.6658 45.7367C80.5691 45.5907 80.5739 45.4 80.6777 45.2591ZM81.9899 46.2257L88.2871 55.7361C88.3703 55.8618 88.3792 56.0227 88.3103 56.1569L78.2615 75.7255L91.2549 75.5679L91.2599 75.5679H111.155L103.692 52.5574L81.9899 46.2257Z" fill="#F5841F"/>
<path d="M32.0335 45.5286L9.02636 52.241L1.36523 76.0071H21.787L35.4727 76.1731L25.1076 55.9885L32.0335 45.5286Z" fill="#F5841F"/>
<path fill-rule="evenodd" clip-rule="evenodd" d="M32.3683 45.282C32.4721 45.4229 32.4769 45.6137 32.3803 45.7596L25.5892 56.016L35.8428 75.9834C35.9095 76.1135 35.9033 76.269 35.8264 76.3934C35.7494 76.5177 35.6129 76.5927 35.4667 76.5909L21.7861 76.4249H1.36431C1.23099 76.4249 1.1057 76.3612 1.0272 76.2534C0.948709 76.1456 0.926476 76.0068 0.967382 75.8799L8.62851 52.1138C8.67095 51.9822 8.77587 51.8801 8.90864 51.8414L31.9157 45.129C32.0838 45.08 32.2645 45.1411 32.3683 45.282ZM9.35453 52.5802L1.93693 75.5908H21.7861L21.7912 75.5908L34.7845 75.7485L24.7357 56.1798C24.6668 56.0457 24.6757 55.8848 24.759 55.7591L31.0561 46.2487L9.35453 52.5802Z" fill="#F5841F"/>
<path d="M63.2227 57.103L64.6932 31.7715L71.3582 13.7453H41.6387L48.3036 31.7715L49.7742 57.103L50.3434 65.0488L50.3909 84.7116H62.606L62.6534 65.0488L63.2227 57.103Z" fill="#F5841F"/>
<path fill-rule="evenodd" clip-rule="evenodd" d="M41.2975 13.5099C41.3754 13.3979 41.5033 13.3312 41.6397 13.3312H71.3592C71.4956 13.3312 71.6235 13.3979 71.7014 13.5099C71.7794 13.6218 71.7977 13.7649 71.7504 13.8928L65.107 31.8607L63.64 57.1301L63.6397 57.1357L63.0715 65.0671L63.0241 84.7155C63.0235 84.9454 62.8369 85.1315 62.607 85.1315H50.3919C50.162 85.1315 49.9754 84.9454 49.9749 84.7155L49.9274 65.0671L49.3592 57.1357L49.3589 57.1301L47.8919 31.8607L41.2485 13.8928C41.2012 13.7649 41.2195 13.6218 41.2975 13.5099ZM42.2385 14.1653L48.6958 31.6298C48.7101 31.6685 48.7186 31.7091 48.721 31.7502L50.1912 57.0761L50.1916 57.0818L50.7604 65.0219C50.7611 65.0315 50.7615 65.0411 50.7615 65.0507L50.8079 84.2974H62.191L62.2374 65.0507C62.2374 65.0411 62.2378 65.0315 62.2385 65.0219L62.8073 57.0818L62.8077 57.0761L64.2779 31.7502C64.2803 31.7091 64.2888 31.6685 64.3031 31.6298L70.7604 14.1653H42.2385Z" fill="#F5841F"/>
</svg>
