<svg width="18" height="12" viewBox="0 0 18 12" fill="none" xmlns="http://www.w3.org/2000/svg">
<path d="M17 5.25C17.4142 5.25 17.75 5.58579 17.75 6C17.75 6.41422 17.4142 6.75 17 6.75L17 5.25ZM1 6.75C0.585787 6.75 0.25 6.41421 0.25 6C0.25 5.58579 0.585787 5.25 1 5.25V6.75ZM4.47204 0.467309C4.76624 0.175726 5.24111 0.177844 5.53269 0.472041C5.82427 0.766238 5.82216 1.24111 5.52796 1.53269L4.47204 0.467309ZM3.23703 2.74731L3.76499 3.28L3.23703 2.74731ZM3.23703 9.25269L2.70907 9.78538L3.23703 9.25269ZM5.52796 10.4673C5.82216 10.7589 5.82427 11.2338 5.53269 11.528C5.24111 11.8222 4.76624 11.8243 4.47204 11.5327L5.52796 10.4673ZM1.01989 5.68667L0.275909 5.59184V5.59184L1.01989 5.68667ZM1.01989 6.31333L0.275909 6.40816V6.40816L1.01989 6.31333ZM17 6.75L1 6.75V5.25L17 5.25L17 6.75ZM5.52796 1.53269L3.76499 3.28L2.70907 2.21462L4.47204 0.467309L5.52796 1.53269ZM3.76499 8.72L5.52796 10.4673L4.47204 11.5327L2.70907 9.78538L3.76499 8.72ZM3.76499 3.28C3.0495 3.98914 2.55869 4.47718 2.22659 4.8907C1.904 5.2924 1.79332 5.55042 1.76387 5.7815L0.275909 5.59184C0.354694 4.97372 0.649628 4.45878 1.05706 3.95146C1.45498 3.45597 2.01863 2.89892 2.70907 2.21462L3.76499 3.28ZM2.70907 9.78538C2.01863 9.10108 1.45498 8.54403 1.05706 8.04854C0.649628 7.54121 0.354694 7.02628 0.275909 6.40816L1.76387 6.2185C1.79332 6.44958 1.904 6.7076 2.22659 7.10929C2.55869 7.52282 3.0495 8.01086 3.76499 8.72L2.70907 9.78538ZM1.76387 5.7815C1.74538 5.92659 1.74538 6.07341 1.76387 6.2185L0.275909 6.40816C0.241364 6.13714 0.241364 5.86286 0.275909 5.59184L1.76387 5.7815Z" fill="white"/>
</svg>
