<svg width="56" height="56" viewBox="0 0 56 56" fill="none" xmlns="http://www.w3.org/2000/svg">
<rect width="56" height="56" rx="22" fill="url(#paint0_radial_1001_9505)"/>
<path d="M39.5862 15.1055L29.1104 22.8546L31.0604 18.2856L39.5862 15.1055Z" fill="#E17726"/>
<path fill-rule="evenodd" clip-rule="evenodd" d="M39.6738 15.0577C39.6975 15.1014 39.6854 15.1558 39.6455 15.1854L29.1697 22.9345C29.1335 22.9613 29.0839 22.9605 29.0486 22.9326C29.0133 22.9047 29.0011 22.8566 29.0187 22.8153L30.9688 18.2463C30.9795 18.2212 31.0001 18.2015 31.0256 18.192L39.5514 15.0119C39.5979 14.9945 39.6502 15.0141 39.6738 15.0577ZM31.1354 18.3638L29.3461 22.5561L38.958 15.4459L31.1354 18.3638Z" fill="#E17726"/>
<path d="M15.4258 15.1055L25.8052 22.9283L23.9515 18.2913L15.4258 15.1055Z" fill="#E27625"/>
<path fill-rule="evenodd" clip-rule="evenodd" d="M15.3385 15.0573C15.3623 15.0139 15.4144 14.9945 15.4607 15.0119L23.9865 18.1977C24.0128 18.2075 24.0337 18.228 24.0442 18.2541L25.8978 22.8911C25.9144 22.9326 25.9013 22.9801 25.8658 23.0073C25.8303 23.0344 25.781 23.0346 25.7453 23.0077L15.3659 15.1848C15.3263 15.155 15.3146 15.1007 15.3385 15.0573ZM16.0343 15.439L25.5802 22.6337L23.8754 18.369L16.0343 15.439Z" fill="#E27625"/>
<path d="M35.8164 33.0697L33.0273 37.3269L38.9965 38.9708L40.7085 33.1661L35.8164 33.0697Z" fill="#E27625"/>
<path fill-rule="evenodd" clip-rule="evenodd" d="M35.733 33.0148C35.7518 32.9861 35.7841 32.9691 35.8184 32.9698L40.7105 33.0662C40.7416 33.0668 40.7706 33.0819 40.7889 33.1069C40.8073 33.132 40.8129 33.1642 40.8041 33.194L39.0922 38.9988C39.0768 39.0509 39.0225 39.0811 38.9701 39.0667L33.0009 37.4228C32.9702 37.4143 32.9454 37.3917 32.9342 37.3619C32.9229 37.3321 32.9266 37.2987 32.944 37.272L35.733 33.0148ZM35.8696 33.1702L33.1857 37.2669L38.9287 38.8485L40.576 33.2629L35.8696 33.1702Z" fill="#E27625"/>
<path d="M14.3203 33.1661L16.0209 38.9708L21.9788 37.3269L19.2011 33.0697L14.3203 33.1661Z" fill="#E27625"/>
<path fill-rule="evenodd" clip-rule="evenodd" d="M19.1992 32.9698C19.2335 32.9691 19.2658 32.9862 19.2846 33.015L22.0623 37.2722C22.0797 37.2988 22.0833 37.3322 22.072 37.3619C22.0608 37.3917 22.036 37.4143 22.0053 37.4228L16.0475 39.0667C15.995 39.0812 15.9406 39.0509 15.9253 38.9986L14.2247 33.1939C14.216 33.1641 14.2216 33.1319 14.24 33.1069C14.2584 33.0818 14.2874 33.0668 14.3184 33.0662L19.1992 32.9698ZM14.4527 33.2629L16.0891 38.8484L21.8208 37.2669L19.1479 33.1702L14.4527 33.2629Z" fill="#E27625"/>
<path d="M21.6562 25.8817L20.001 28.3816L25.9078 28.648L25.7094 22.2934L21.6562 25.8817Z" fill="#E27625"/>
<path fill-rule="evenodd" clip-rule="evenodd" d="M25.7489 22.2016C25.7844 22.217 25.8079 22.2514 25.8091 22.29L26.0075 28.6447C26.0083 28.6724 25.9976 28.6993 25.9778 28.7188C25.9581 28.7383 25.9311 28.7486 25.9034 28.7474L19.9965 28.4809C19.9607 28.4793 19.9285 28.4585 19.9122 28.4265C19.8959 28.3945 19.8981 28.3563 19.9179 28.3263L21.5732 25.8264C21.578 25.8192 21.5837 25.8126 21.5902 25.8068L25.6434 22.2185C25.6723 22.1929 25.7135 22.1863 25.7489 22.2016ZM21.7322 25.9474L20.1813 28.2897L25.8049 28.5434L25.6164 22.5086L21.7322 25.9474Z" fill="#E27625"/>
<path d="M33.3562 25.8815L29.2464 22.2252L29.1104 28.6536L35.0172 28.3871L33.3562 25.8815Z" fill="#E27625"/>
<path fill-rule="evenodd" clip-rule="evenodd" d="M29.2066 22.134C29.2423 22.1184 29.2837 22.125 29.3127 22.1509L33.4225 25.8072C33.429 25.8129 33.4346 25.8194 33.4394 25.8266L35.1003 28.3322C35.1201 28.3621 35.1224 28.4004 35.1061 28.4324C35.0898 28.4644 35.0576 28.4852 35.0217 28.4868L29.1149 28.7532C29.0874 28.7545 29.0605 28.7443 29.0408 28.725C29.021 28.7057 29.0102 28.6791 29.0108 28.6516L29.1468 22.2232C29.1476 22.1844 29.171 22.1495 29.2066 22.134ZM29.3415 22.4433L29.2123 28.5493L34.8369 28.2956L33.2804 25.9475L29.3415 22.4433Z" fill="#E27625"/>
<path d="M21.9736 37.3268L25.5449 35.6035L22.4668 33.2056L21.9736 37.3268Z" fill="#E27625"/>
<path fill-rule="evenodd" clip-rule="evenodd" d="M22.4285 33.1134C22.4617 33.0996 22.4998 33.1047 22.5281 33.1268L25.6062 35.5246C25.6334 35.5458 25.6478 35.5795 25.6441 35.6138C25.6405 35.6481 25.6194 35.678 25.5883 35.693L22.017 37.4163C21.9842 37.4321 21.9454 37.4288 21.9158 37.4077C21.8861 37.3865 21.8704 37.3509 21.8747 37.3147L22.3679 33.1935C22.3722 33.1578 22.3953 33.1272 22.4285 33.1134ZM22.5449 33.3925L22.0943 37.1577L25.3571 35.5832L22.5449 33.3925Z" fill="#E27625"/>
<path d="M29.4619 35.6035L33.0275 37.3268L32.54 33.2056L29.4619 35.6035Z" fill="#E27625"/>
<path fill-rule="evenodd" clip-rule="evenodd" d="M32.5785 33.1134C32.6117 33.1273 32.6349 33.158 32.6391 33.1937L33.1266 37.3148C33.1309 37.351 33.1151 37.3866 33.0855 37.4077C33.0558 37.4288 33.017 37.4321 32.9842 37.4163L29.4186 35.693C29.3876 35.678 29.3665 35.648 29.3629 35.6138C29.3592 35.5795 29.3735 35.5458 29.4007 35.5246L32.4788 33.1268C32.5072 33.1046 32.5453 33.0995 32.5785 33.1134ZM29.6498 35.5833L32.9073 37.1577L32.4619 33.3927L29.6498 35.5833Z" fill="#E27625"/>
<path d="M33.0275 37.3266L29.4619 35.6033L29.751 37.9162L29.7227 38.8969L33.0275 37.3266Z" fill="#D5BFB2"/>
<path fill-rule="evenodd" clip-rule="evenodd" d="M29.4039 35.5224C29.4335 35.5011 29.4725 35.4978 29.5054 35.5137L33.071 37.2369C33.1055 37.2536 33.1274 37.2887 33.1273 37.327C33.1272 37.3654 33.105 37.4003 33.0704 37.4167L29.7655 38.987C29.7342 39.0018 29.6973 38.9994 29.6683 38.9804C29.6392 38.9614 29.6221 38.9287 29.6231 38.894L29.6512 37.921L29.3631 35.6158C29.3585 35.5795 29.3742 35.5437 29.4039 35.5224ZM29.5836 35.7729L29.85 37.9039C29.8506 37.9089 29.8509 37.914 29.8507 37.9191L29.8271 38.737L32.797 37.3259L29.5836 35.7729Z" fill="#D5BFB2"/>
<path d="M21.9736 37.3266L25.2898 38.8969L25.2672 37.9162L25.5449 35.6033L21.9736 37.3266Z" fill="#D5BFB2"/>
<path fill-rule="evenodd" clip-rule="evenodd" d="M25.6029 35.5223C25.6326 35.5435 25.6483 35.5791 25.644 35.6153L25.367 37.9211L25.3895 38.8946C25.3903 38.9292 25.3732 38.9617 25.3442 38.9805C25.3152 38.9994 25.2785 39.0018 25.2472 38.987L21.931 37.4168C21.8963 37.4003 21.8742 37.3654 21.874 37.3271C21.8739 37.2887 21.8958 37.2536 21.9304 37.2369L25.5017 35.5136C25.5345 35.4978 25.5733 35.5011 25.6029 35.5223ZM22.2048 37.3258L25.1865 38.7377L25.1676 37.9185C25.1675 37.9138 25.1677 37.9091 25.1683 37.9044L25.4243 35.7723L22.2048 37.3258Z" fill="#D5BFB2"/>
<path d="M25.3524 31.6749L22.3877 30.8076L24.4795 29.8439L25.3524 31.6749Z" fill="#233447"/>
<path fill-rule="evenodd" clip-rule="evenodd" d="M24.4368 29.7535C24.4864 29.7307 24.545 29.7519 24.5685 29.8011L25.4415 31.6321C25.4584 31.6676 25.4529 31.7097 25.4274 31.7396C25.4019 31.7696 25.3613 31.7817 25.3235 31.7707L22.3588 30.9034C22.3189 30.8917 22.2904 30.8565 22.2874 30.815C22.2843 30.7736 22.3073 30.7346 22.3451 30.7172L24.4368 29.7535ZM22.6703 30.7868L25.1657 31.5168L24.4309 29.9757L22.6703 30.7868Z" fill="#233447"/>
<path d="M29.6602 31.6749L30.5331 29.8439L32.6362 30.8076L29.6602 31.6749Z" fill="#233447"/>
<path fill-rule="evenodd" clip-rule="evenodd" d="M30.4432 29.8011C30.4667 29.752 30.5252 29.7307 30.5747 29.7534L32.6778 30.7171C32.7157 30.7344 32.7387 30.7735 32.7357 30.815C32.7327 30.8565 32.7042 30.8917 32.6642 30.9034L29.6881 31.7707C29.6504 31.7817 29.6097 31.7695 29.5843 31.7396C29.5588 31.7097 29.5533 31.6676 29.5703 31.6321L30.4432 29.8011ZM30.5809 29.9755L29.8459 31.5171L32.3516 30.7869L30.5809 29.9755Z" fill="#233447"/>
<path d="M21.973 37.3269L22.4888 33.0697L19.1953 33.1604L21.973 37.3269Z" fill="#CC6228"/>
<path fill-rule="evenodd" clip-rule="evenodd" d="M22.5626 33.0023C22.5821 33.0238 22.5913 33.0527 22.5879 33.0815L22.072 37.3387C22.067 37.3801 22.0367 37.414 21.9961 37.4236C21.9556 37.4333 21.9133 37.4167 21.8901 37.382L19.1124 33.2154C19.0923 33.1853 19.0902 33.1465 19.1069 33.1143C19.1235 33.0821 19.1564 33.0615 19.1926 33.0605L22.4862 32.9698C22.5152 32.969 22.5431 32.9809 22.5626 33.0023ZM19.3783 33.2548L21.9065 37.0472L22.376 33.1723L19.3783 33.2548Z" fill="#CC6228"/>
<path d="M32.5176 33.0697L33.0278 37.3269L35.8168 33.1604L32.5176 33.0697Z" fill="#CC6228"/>
<path fill-rule="evenodd" clip-rule="evenodd" d="M32.444 33.0023C32.4635 32.9809 32.4914 32.969 32.5204 32.9698L35.8196 33.0605C35.8559 33.0615 35.8887 33.0822 35.9054 33.1144C35.9221 33.1467 35.9199 33.1854 35.8997 33.2156L33.1107 37.3821C33.0875 37.4168 33.0451 37.4333 33.0046 37.4236C32.964 37.4139 32.9338 37.3799 32.9289 37.3385L32.4187 33.0813C32.4152 33.0525 32.4245 33.0237 32.444 33.0023ZM32.6303 33.1723L33.0948 37.0475L35.6335 33.2548L32.6303 33.1723Z" fill="#CC6228"/>
<path d="M35.0172 28.3813L29.1104 28.6478L29.6602 31.6749L30.5332 29.8439L32.6363 30.8076L35.0172 28.3813Z" fill="#CC6228"/>
<path fill-rule="evenodd" clip-rule="evenodd" d="M35.1082 28.3408C35.1249 28.3782 35.1171 28.422 35.0884 28.4513L32.7075 30.8775C32.6781 30.9075 32.633 30.9158 32.5948 30.8983L30.581 29.9755L29.7503 31.7179C29.7316 31.7569 29.69 31.7795 29.6471 31.7738C29.6042 31.7681 29.5699 31.7354 29.5622 31.6928L29.0123 28.6657C29.0072 28.6374 29.0145 28.6083 29.0325 28.5858C29.0504 28.5633 29.0772 28.5496 29.1059 28.5483L35.0127 28.2819C35.0537 28.2801 35.0915 28.3034 35.1082 28.3408ZM29.2289 28.7423L29.7032 31.3534L30.4433 29.8011C30.4667 29.752 30.5253 29.7307 30.5748 29.7534L32.6142 30.6879L34.7687 28.4925L29.2289 28.7423Z" fill="#CC6228"/>
<path d="M22.3873 30.8076L24.4791 29.8439L25.3521 31.6749L25.9019 28.6478L19.9951 28.3813L22.3873 30.8076Z" fill="#CC6228"/>
<path fill-rule="evenodd" clip-rule="evenodd" d="M19.9041 28.3409C19.9208 28.3035 19.9587 28.2801 19.9997 28.2819L25.9065 28.5483C25.9352 28.5496 25.962 28.5633 25.9799 28.5858C25.9979 28.6083 26.0052 28.6374 26.0001 28.6657L25.4502 31.6928C25.4425 31.7354 25.4082 31.7681 25.3653 31.7738C25.3224 31.7795 25.2808 31.7569 25.2622 31.7179L24.4315 29.9757L22.4291 30.8982C22.391 30.9158 22.3459 30.9076 22.3164 30.8777L19.9242 28.4515C19.8954 28.4223 19.8874 28.3784 19.9041 28.3409ZM20.2446 28.4925L22.4092 30.6879L24.4374 29.7535C24.487 29.7307 24.5456 29.7519 24.5691 29.8011L25.3092 31.3534L25.7835 28.7423L20.2446 28.4925Z" fill="#CC6228"/>
<path d="M19.9951 28.3813L22.4723 33.2054L22.3873 30.8076L19.9951 28.3813Z" fill="#E27525"/>
<path fill-rule="evenodd" clip-rule="evenodd" d="M19.9368 28.3007C19.9766 28.2719 20.0316 28.2764 20.0662 28.3115L22.4584 30.7377C22.4759 30.7555 22.4861 30.7792 22.487 30.8042L22.572 33.202C22.5737 33.2487 22.5427 33.2902 22.4976 33.302C22.4524 33.3138 22.4051 33.2926 22.3838 33.2511L19.9065 28.427C19.884 28.3832 19.8969 28.3296 19.9368 28.3007ZM20.3812 28.9149L22.357 32.7625L22.2892 30.85L20.3812 28.9149Z" fill="#E27525"/>
<path d="M32.6366 30.8076L32.5459 33.2054L35.0231 28.3813L32.6366 30.8076Z" fill="#E27525"/>
<path fill-rule="evenodd" clip-rule="evenodd" d="M35.0816 28.3007C35.1215 28.3295 35.1344 28.3832 35.1119 28.427L32.6346 33.2511C32.6133 33.2927 32.5659 33.3138 32.5207 33.302C32.4755 33.2901 32.4446 33.2485 32.4464 33.2018L32.5371 30.8039C32.538 30.7791 32.5482 30.7555 32.5656 30.7378L34.9521 28.3116C34.9867 28.2765 35.0417 28.2718 35.0816 28.3007ZM32.7348 30.85L32.6625 32.7603L34.636 28.9172L32.7348 30.85Z" fill="#E27525"/>
<path d="M25.9024 28.648L25.3525 31.6751L26.0441 35.2521L26.1972 30.5414L25.9024 28.648Z" fill="#E27525"/>
<path fill-rule="evenodd" clip-rule="evenodd" d="M25.9037 28.5484C25.9524 28.549 25.9935 28.5847 26.001 28.6327L26.2957 30.5261C26.2967 30.5322 26.2971 30.5385 26.2969 30.5447L26.1438 35.2554C26.1422 35.3061 26.1027 35.3475 26.0521 35.3515C26.0015 35.3555 25.956 35.3209 25.9463 35.2711L25.2547 31.6941C25.2524 31.682 25.2523 31.6695 25.2545 31.6574L25.8044 28.6303C25.8131 28.5824 25.8551 28.5478 25.9037 28.5484ZM25.454 31.6746L25.9734 34.361L26.0973 30.5475L25.8949 29.2474L25.454 31.6746Z" fill="#E27525"/>
<path d="M29.1104 28.648L28.8213 30.53L28.9687 35.2521L29.6603 31.6751L29.1104 28.648Z" fill="#E27525"/>
<path fill-rule="evenodd" clip-rule="evenodd" d="M29.1091 28.5484C29.1578 28.5477 29.1998 28.5824 29.2085 28.6303L29.7584 31.6574C29.7606 31.6695 29.7605 31.682 29.7582 31.6941L29.0666 35.2711C29.057 35.3209 29.0114 35.3555 28.9608 35.3515C28.9102 35.3474 28.8707 35.306 28.8691 35.2552L28.7217 30.5332C28.7215 30.5271 28.7219 30.521 28.7228 30.515L29.0119 28.6329C29.0193 28.5848 29.0604 28.5491 29.1091 28.5484ZM29.1187 29.251L28.9213 30.5362L29.0405 34.356L29.5589 31.6746L29.1187 29.251Z" fill="#E27525"/>
<path d="M29.6603 31.6749L28.9688 35.2518L29.4676 35.6033L32.5457 33.2054L32.6364 30.8076L29.6603 31.6749Z" fill="#F5841F"/>
<path fill-rule="evenodd" clip-rule="evenodd" d="M32.6978 30.7291C32.723 30.7488 32.7373 30.7794 32.7361 30.8114L32.6454 33.2093C32.6443 33.2387 32.6302 33.2661 32.607 33.2842L29.5289 35.6821C29.4943 35.709 29.4461 35.7102 29.4103 35.6849L28.9114 35.3334C28.8793 35.3109 28.8635 35.2716 28.871 35.233L29.5625 31.6561C29.5696 31.6194 29.5966 31.5898 29.6325 31.5793L32.6086 30.712C32.6393 30.703 32.6725 30.7094 32.6978 30.7291ZM29.7467 31.7537L29.0789 35.2076L29.4647 35.4794L32.4479 33.1554L32.5317 30.9421L29.7467 31.7537Z" fill="#F5841F"/>
<path d="M22.3877 30.8076L22.4727 33.2054L25.5508 35.6033L26.0497 35.2518L25.3524 31.6749L22.3877 30.8076Z" fill="#F5841F"/>
<path fill-rule="evenodd" clip-rule="evenodd" d="M22.3256 30.729C22.3509 30.7093 22.384 30.703 22.4148 30.712L25.3795 31.5793C25.4153 31.5898 25.4422 31.6193 25.4494 31.6559L26.1466 35.2329C26.1541 35.2714 26.1383 35.3108 26.1062 35.3334L25.6073 35.6849C25.5715 35.7102 25.5233 35.709 25.4887 35.6821L22.4106 33.2842C22.3873 33.2661 22.3732 33.2386 22.3722 33.2091L22.2872 30.8112C22.286 30.7792 22.3003 30.7486 22.3256 30.729ZM22.4913 30.9421L22.5698 33.1555L25.5529 35.4794L25.9386 35.2077L25.2653 31.7536L22.4913 30.9421Z" fill="#F5841F"/>
<path d="M29.7226 38.8968L29.7509 37.9161L29.4788 37.6894H25.5221L25.2613 37.9161L25.284 38.8968L21.9678 37.3266L23.1299 38.2789L25.4824 39.9002H29.5128L31.8767 38.2789L33.0275 37.3266L29.7226 38.8968Z" fill="#C0AC9D"/>
<path fill-rule="evenodd" clip-rule="evenodd" d="M21.8836 37.2734C21.9106 37.2309 21.965 37.2151 22.0105 37.2367L25.1807 38.7377L25.1617 37.9186C25.161 37.8889 25.1736 37.8605 25.196 37.8411L25.4567 37.6143C25.4749 37.5985 25.4981 37.5899 25.5221 37.5899H29.4789C29.5022 37.5899 29.5248 37.598 29.5427 37.613L29.8148 37.8397C29.8383 37.8593 29.8515 37.8886 29.8506 37.9192L29.827 38.737L32.9847 37.2367C33.0302 37.2151 33.0845 37.2308 33.1116 37.2732C33.1386 37.3156 33.1298 37.3715 33.0911 37.4035L31.9403 38.3559C31.938 38.3578 31.9356 38.3596 31.9331 38.3613L29.5693 39.9825C29.5527 39.9939 29.533 40 29.5129 40H25.4825C25.4622 40 25.4425 39.9939 25.4259 39.9824L23.0734 38.3612C23.0711 38.3596 23.0689 38.3579 23.0668 38.3562L21.9047 37.4038C21.8657 37.3719 21.8567 37.316 21.8836 37.2734ZM22.659 37.7643L23.1899 38.1994L25.5135 39.8007H29.482L31.8167 38.1994L32.3474 37.7603L29.7654 38.987C29.7341 39.0019 29.6973 38.9994 29.6682 38.9805C29.6391 38.9615 29.622 38.9288 29.623 38.8941L29.65 37.9618L29.4428 37.7892H25.5594L25.3621 37.9608L25.3837 38.8947C25.3845 38.9292 25.3673 38.9617 25.3383 38.9806C25.3093 38.9994 25.2726 39.0019 25.2414 38.9871L22.659 37.7643Z" fill="#C0AC9D"/>
<path d="M29.4615 35.6033L28.9626 35.2518H26.0432L25.5444 35.6033L25.2666 37.9161L25.5274 37.6894H29.4841L29.7562 37.9161L29.4615 35.6033Z" fill="#161616"/>
<path fill-rule="evenodd" clip-rule="evenodd" d="M25.9859 35.1705C26.0027 35.1586 26.0227 35.1523 26.0433 35.1523H28.9627C28.9832 35.1523 29.0033 35.1586 29.0201 35.1705L29.5189 35.5219C29.5418 35.5381 29.5569 35.5631 29.5604 35.5908L29.8552 37.9037C29.8604 37.9443 29.8401 37.984 29.8042 38.0037C29.7683 38.0234 29.724 38.0191 29.6925 37.9928L29.4481 37.7892H25.5647L25.3321 37.9915C25.301 38.0185 25.2564 38.0236 25.22 38.0043C25.1836 37.985 25.1628 37.9453 25.1677 37.9044L25.4455 35.5915C25.4488 35.5635 25.4639 35.5382 25.487 35.5219L25.9859 35.1705ZM26.0749 35.3516L25.6381 35.6593L25.3965 37.6713L25.462 37.6143C25.4802 37.5985 25.5034 37.5898 25.5274 37.5898H29.4842C29.5075 37.5898 29.5301 37.598 29.548 37.6129L29.6254 37.6774L29.3682 35.6596L28.9311 35.3516H26.0749Z" fill="#161616"/>
<path d="M40.0284 23.3589L40.9071 19.079L39.5806 15.0995L29.4619 22.5936L33.3563 25.8815L38.855 27.4857L40.0681 26.0685L39.5409 25.6887L40.3799 24.9234L39.7393 24.4303L40.5783 23.7897L40.0284 23.3589Z" fill="#763E1A"/>
<path fill-rule="evenodd" clip-rule="evenodd" d="M39.6107 15.0046C39.6411 15.0142 39.6651 15.0379 39.6752 15.0682L41.0017 19.0476C41.0072 19.0642 41.0083 19.082 41.0048 19.0992L40.1385 23.3186L40.6398 23.7114C40.6641 23.7304 40.6782 23.7596 40.678 23.7905C40.6778 23.8213 40.6634 23.8503 40.6388 23.869L39.9032 24.4307L40.4407 24.8446C40.4641 24.8626 40.4783 24.89 40.4795 24.9194C40.4808 24.9489 40.4689 24.9773 40.4471 24.9972L39.6988 25.6797L40.1264 25.9878C40.149 26.0041 40.1638 26.0291 40.1671 26.0568C40.1704 26.0845 40.162 26.1123 40.1439 26.1335L38.9308 27.5507C38.9053 27.5804 38.8647 27.5925 38.8271 27.5815L33.3285 25.9773C33.3151 25.9734 33.3027 25.9667 33.2921 25.9577L29.3977 22.6699C29.3744 22.6502 29.3614 22.621 29.3624 22.5906C29.3633 22.5601 29.3782 22.5318 29.4027 22.5136L39.5213 15.0196C39.547 15.0006 39.5802 14.995 39.6107 15.0046ZM29.6225 22.5988L33.4046 25.7918L38.8212 27.3721L39.922 26.0862L39.4827 25.7697C39.4583 25.7522 39.4432 25.7246 39.4415 25.6946C39.4397 25.6646 39.4516 25.6354 39.4738 25.6152L40.2249 24.93L39.6786 24.5094C39.654 24.4905 39.6396 24.4612 39.6397 24.4302C39.6398 24.3992 39.6542 24.37 39.6789 24.3512L40.4154 23.7888L39.967 23.4375C39.9372 23.4141 39.9232 23.376 39.9308 23.339L40.8041 19.0853L39.5295 15.2616L29.6225 22.5988Z" fill="#763E1A"/>
<path d="M14.0996 19.0849L14.9896 23.3648L14.4171 23.79L15.2674 24.4305L14.6268 24.9237L15.4658 25.689L14.9386 26.0688L16.1517 27.486L21.6503 25.8817L25.5448 22.5939L15.4261 15.1055L14.0996 19.0849Z" fill="#763E1A"/>
<path fill-rule="evenodd" clip-rule="evenodd" d="M15.3961 15.0102C15.4266 15.0006 15.4598 15.0061 15.4854 15.0251L25.6041 22.5135C25.6286 22.5316 25.6435 22.56 25.6444 22.5904C25.6454 22.6209 25.6324 22.6501 25.6091 22.6698L21.7147 25.9576C21.7041 25.9666 21.6917 25.9733 21.6783 25.9772L16.1797 27.5814C16.1421 27.5924 16.1015 27.5803 16.076 27.5505L14.8629 26.1334C14.8448 26.1122 14.8364 26.0844 14.8397 26.0567C14.843 26.029 14.8578 26.004 14.8804 25.9877L15.308 25.6796L14.5597 24.9971C14.5379 24.9772 14.526 24.9488 14.5273 24.9193C14.5285 24.8899 14.5427 24.8625 14.5661 24.8445L15.1029 24.4311L14.3571 23.8693C14.3321 23.8504 14.3173 23.8208 14.3174 23.7894C14.3176 23.7579 14.3325 23.7284 14.3577 23.7097L14.8791 23.3225L14.0021 19.105C13.9985 19.0877 13.9995 19.0699 14.0051 19.0532L15.3316 15.0737C15.3417 15.0434 15.3657 15.0198 15.3961 15.0102ZM15.4773 15.2671L14.2027 19.0907L15.0872 23.3443C15.0952 23.3823 15.0803 23.4214 15.0491 23.4446L14.5835 23.7903L15.3274 24.3507C15.3523 24.3694 15.3669 24.3986 15.3671 24.4298C15.3673 24.4609 15.3529 24.4903 15.3282 24.5093L14.7819 24.9299L15.533 25.6151C15.5552 25.6353 15.5671 25.6645 15.5653 25.6945C15.5636 25.7245 15.5485 25.7521 15.5241 25.7696L15.0848 26.0861L16.1856 27.372L21.6022 25.7917L25.3842 22.5988L15.4773 15.2671Z" fill="#763E1A"/>
<path d="M38.8607 27.4801L33.362 25.8759L35.0173 28.3758L32.54 33.1998L35.8109 33.1602H40.703L38.8607 27.4801Z" fill="#F5841F"/>
<path fill-rule="evenodd" clip-rule="evenodd" d="M33.2818 25.8169C33.3066 25.7832 33.3498 25.7686 33.39 25.7803L38.8886 27.3846C38.9203 27.3938 38.9454 27.4181 38.9555 27.4495L40.7979 33.1295C40.8077 33.1599 40.8024 33.1931 40.7837 33.2189C40.7649 33.2447 40.735 33.26 40.7031 33.26H35.811L32.5413 33.2996C32.5064 33.3001 32.4737 33.2822 32.4554 33.2524C32.437 33.2227 32.4355 33.1855 32.4514 33.1544L34.902 28.3823L33.279 25.931C33.2559 25.8961 33.257 25.8505 33.2818 25.8169ZM33.5954 26.0479L35.1004 28.3209C35.1203 28.3509 35.1225 28.3894 35.106 28.4214L32.7044 33.0983L35.8097 33.0606L35.811 33.0606H40.566L38.7822 27.5611L33.5954 26.0479Z" fill="#F5841F"/>
<path d="M21.6558 25.8815L16.1572 27.4857L14.3262 33.1658H19.2069L22.4778 33.2055L20.0006 28.3814L21.6558 25.8815Z" fill="#F5841F"/>
<path fill-rule="evenodd" clip-rule="evenodd" d="M21.7361 25.8224C21.761 25.8561 21.7621 25.9017 21.739 25.9366L20.116 28.3878L22.5665 33.16C22.5825 33.1911 22.581 33.2283 22.5626 33.258C22.5442 33.2877 22.5116 33.3056 22.4767 33.3052L19.207 33.2655H14.3262C14.2944 33.2655 14.2644 33.2503 14.2457 33.2245C14.2269 33.1988 14.2216 33.1656 14.2314 33.1353L16.0624 27.4552C16.0725 27.4237 16.0976 27.3994 16.1293 27.3901L21.628 25.7859C21.6681 25.7741 21.7113 25.7887 21.7361 25.8224ZM16.2359 27.5667L14.4631 33.0662H19.207L19.2082 33.0662L22.3136 33.1039L19.912 28.427C19.8955 28.3949 19.8976 28.3565 19.9175 28.3264L21.4225 26.0535L16.2359 27.5667Z" fill="#F5841F"/>
<path d="M29.1107 28.6478L29.4621 22.5936L31.0551 18.2854H23.9521L25.5451 22.5936L25.8965 28.6478L26.0326 30.5469L26.0439 35.2462H28.9633L28.9746 30.5469L29.1107 28.6478Z" fill="#F5841F"/>
<path fill-rule="evenodd" clip-rule="evenodd" d="M23.8704 18.2285C23.8891 18.2017 23.9196 18.1858 23.9522 18.1858H31.0551C31.0877 18.1858 31.1183 18.2017 31.1369 18.2285C31.1556 18.2553 31.1599 18.2894 31.1486 18.32L29.5609 22.6143L29.2103 28.6537L29.2102 28.655L29.0744 30.5506L29.063 35.2465C29.0629 35.3015 29.0183 35.346 28.9634 35.346H26.044C25.989 35.346 25.9444 35.3015 25.9443 35.2465L25.933 30.5506L25.7972 28.655L25.7971 28.6537L25.4465 22.6143L23.8587 18.32C23.8474 18.2894 23.8518 18.2553 23.8704 18.2285ZM24.0953 18.3851L25.6386 22.5591C25.642 22.5684 25.6441 22.5781 25.6446 22.5879L25.996 28.6408L25.9961 28.6421L26.1321 30.5398C26.1322 30.5421 26.1323 30.5444 26.1323 30.5467L26.1434 35.1466H28.8639L28.875 30.5467C28.875 30.5444 28.8751 30.5421 28.8753 30.5398L29.0112 28.6421L29.0113 28.6408L29.3627 22.5879C29.3633 22.5781 29.3653 22.5684 29.3687 22.5591L30.912 18.3851H24.0953Z" fill="#F5841F"/>
<defs>
<radialGradient id="paint0_radial_1001_9505" cx="0" cy="0" r="1" gradientUnits="userSpaceOnUse" gradientTransform="translate(28 28) rotate(45) scale(39.598)">
<stop stop-color="#FFF3F1"/>
<stop offset="1" stop-color="#FFC8B1"/>
</radialGradient>
</defs>
</svg>
