<svg width="56" height="56" viewBox="0 0 56 56" fill="none" xmlns="http://www.w3.org/2000/svg">
<rect width="56" height="56" rx="22" fill="url(#paint0_radial_2065_11817)"/>
<path d="M27 38V37.25V38ZM26 38V38.75V38ZM20 32H20.75H20ZM20 26H19.25H20ZM26 20V19.25V20ZM27 20V20.75V20ZM20.0616 24.2178L19.3208 24.1005L19.3208 24.1005L20.0616 24.2178ZM24.2178 20.0616L24.3352 20.8023L24.2178 20.0616ZM24.2178 37.9384L24.1005 38.6792H24.1005L24.2178 37.9384ZM20.0616 33.7822L19.3208 33.8995L19.3208 33.8995L20.0616 33.7822ZM30.4504 37.6C30.7816 37.3513 30.8484 36.8811 30.5997 36.5499C30.3509 36.2187 29.8808 36.1519 29.5496 36.4007L30.4504 37.6ZM29.5496 21.5993C29.8808 21.8481 30.3509 21.7813 30.5997 21.4501C30.8484 21.1189 30.7816 20.6487 30.4504 20.4L29.5496 21.5993ZM24 28.25C23.5858 28.25 23.25 28.5858 23.25 29C23.25 29.4142 23.5858 29.75 24 29.75V28.25ZM37 29V29.75V29ZM34.466 24.4123C34.1414 24.155 33.6697 24.2095 33.4123 24.534C33.155 24.8586 33.2095 25.3303 33.534 25.5877L34.466 24.4123ZM35.763 26.3978L36.2289 25.8102L35.763 26.3978ZM35.763 31.6022L36.2289 32.1898L35.763 31.6022ZM33.534 32.4123C33.2095 32.6697 33.155 33.1414 33.4123 33.466C33.6697 33.7905 34.1414 33.845 34.466 33.5877L33.534 32.4123ZM37.9801 28.7493L38.7208 28.6313V28.6313L37.9801 28.7493ZM37.9801 29.2507L38.7208 29.3687V29.3687L37.9801 29.2507ZM38 29H38.75H38ZM27 37.25H26V38.75H27V37.25ZM20.75 32L20.75 26H19.25L19.25 32H20.75ZM26 20.75L27 20.75V19.25L26 19.25V20.75ZM20.75 26C20.75 25.0423 20.7523 24.6508 20.8023 24.3352L19.3208 24.1005C19.2477 24.5622 19.25 25.0997 19.25 26H20.75ZM26 19.25C25.0997 19.25 24.5622 19.2477 24.1005 19.3208L24.3352 20.8023C24.6508 20.7523 25.0423 20.75 26 20.75V19.25ZM20.8023 24.3352C21.0904 22.5166 22.5166 21.0904 24.3352 20.8023L24.1005 19.3208C21.6401 19.7105 19.7105 21.6401 19.3208 24.1005L20.8023 24.3352ZM26 37.25C25.0423 37.25 24.6508 37.2477 24.3352 37.1977L24.1005 38.6792C24.5622 38.7523 25.0997 38.75 26 38.75V37.25ZM19.25 32C19.25 32.9003 19.2477 33.4378 19.3208 33.8995L20.8023 33.6648C20.7523 33.3492 20.75 32.9577 20.75 32H19.25ZM24.3352 37.1977C22.5166 36.9096 21.0904 35.4834 20.8023 33.6648L19.3208 33.8995C19.7105 36.3599 21.6401 38.2895 24.1005 38.6792L24.3352 37.1977ZM27 38.75C28.2936 38.75 29.4894 38.3219 30.4504 37.6L29.5496 36.4007C28.8393 36.9342 27.9576 37.25 27 37.25V38.75ZM27 20.75C27.9576 20.75 28.8393 21.0658 29.5496 21.5993L30.4504 20.4C29.4894 19.6781 28.2936 19.25 27 19.25V20.75ZM24 29.75L37 29.75V28.25L24 28.25V29.75ZM33.534 25.5877L35.297 26.9855L36.2289 25.8102L34.466 24.4123L33.534 25.5877ZM35.297 31.0145L33.534 32.4123L34.466 33.5877L36.2289 32.1898L35.297 31.0145ZM35.297 26.9855C36.0143 27.5543 36.5012 27.9418 36.8289 28.2682C37.1532 28.5913 37.2225 28.7612 37.2395 28.8673L38.7208 28.6313C38.6294 28.0582 38.2932 27.6096 37.8875 27.2055C37.4852 26.8047 36.9176 26.3562 36.2289 25.8102L35.297 26.9855ZM36.2289 32.1898C36.9175 31.6438 37.4852 31.1953 37.8875 30.7945C38.2932 30.3904 38.6294 29.9418 38.7208 29.3687L37.2395 29.1327C37.2225 29.2388 37.1532 29.4087 36.8289 29.7318C36.5012 30.0582 36.0143 30.4457 35.297 31.0145L36.2289 32.1898ZM37.2395 28.8673C37.2465 28.9117 37.25 28.9559 37.25 29H38.75C38.75 28.8766 38.7402 28.7534 38.7208 28.6313L37.2395 28.8673ZM37.25 29C37.25 29.0441 37.2465 29.0883 37.2395 29.1327L38.7208 29.3687C38.7402 29.2466 38.75 29.1234 38.75 29H37.25ZM37 29.75H38V28.25H37V29.75Z" fill="white"/>
<defs>
<radialGradient id="paint0_radial_2065_11817" cx="0" cy="0" r="1" gradientUnits="userSpaceOnUse" gradientTransform="translate(28 28) rotate(45) scale(39.598)">
<stop stop-color="#DFDFDF" stop-opacity="0.47"/>
<stop offset="1" stop-color="#CCCCCC" stop-opacity="0.38"/>
</radialGradient>
</defs>
</svg>
