<svg width="48" height="48" viewBox="0 0 48 48" fill="none" xmlns="http://www.w3.org/2000/svg">
<rect width="48" height="48" rx="18" fill="url(#paint0_radial_1110_9494)"/>
<path d="M22 33V32.25V33ZM21 33V33.75V33ZM15 27H15.75H15ZM15 21H14.25H15ZM21 15V14.25V15ZM22 15V15.75V15ZM15.0616 19.2178L14.3208 19.1005L14.3208 19.1005L15.0616 19.2178ZM19.2178 15.0616L19.3352 15.8023L19.2178 15.0616ZM19.2178 32.9384L19.1005 33.6792H19.1005L19.2178 32.9384ZM15.0616 28.7822L14.3208 28.8995L14.3208 28.8995L15.0616 28.7822ZM25.4504 32.6C25.7816 32.3513 25.8484 31.8811 25.5997 31.5499C25.3509 31.2187 24.8808 31.1519 24.5496 31.4007L25.4504 32.6ZM24.5496 16.5993C24.8808 16.8481 25.3509 16.7813 25.5997 16.4501C25.8484 16.1189 25.7816 15.6487 25.4504 15.4L24.5496 16.5993ZM19 23.25C18.5858 23.25 18.25 23.5858 18.25 24C18.25 24.4142 18.5858 24.75 19 24.75V23.25ZM32 24V24.75V24ZM29.466 19.4123C29.1414 19.155 28.6697 19.2095 28.4123 19.534C28.155 19.8586 28.2095 20.3303 28.534 20.5877L29.466 19.4123ZM30.763 21.3978L31.2289 20.8102L30.763 21.3978ZM30.763 26.6022L31.2289 27.1898L30.763 26.6022ZM28.534 27.4123C28.2095 27.6697 28.155 28.1414 28.4123 28.466C28.6697 28.7905 29.1414 28.845 29.466 28.5877L28.534 27.4123ZM32.9801 23.7493L33.7208 23.6313V23.6313L32.9801 23.7493ZM32.9801 24.2507L33.7208 24.3687V24.3687L32.9801 24.2507ZM33 24H33.75H33ZM22 32.25H21V33.75H22V32.25ZM15.75 27L15.75 21H14.25L14.25 27H15.75ZM21 15.75L22 15.75V14.25L21 14.25V15.75ZM15.75 21C15.75 20.0423 15.7523 19.6508 15.8023 19.3352L14.3208 19.1005C14.2477 19.5622 14.25 20.0997 14.25 21H15.75ZM21 14.25C20.0997 14.25 19.5622 14.2477 19.1005 14.3208L19.3352 15.8023C19.6508 15.7523 20.0423 15.75 21 15.75V14.25ZM15.8023 19.3352C16.0904 17.5166 17.5166 16.0904 19.3352 15.8023L19.1005 14.3208C16.6401 14.7105 14.7105 16.6401 14.3208 19.1005L15.8023 19.3352ZM21 32.25C20.0423 32.25 19.6508 32.2477 19.3352 32.1977L19.1005 33.6792C19.5622 33.7523 20.0997 33.75 21 33.75V32.25ZM14.25 27C14.25 27.9003 14.2477 28.4378 14.3208 28.8995L15.8023 28.6648C15.7523 28.3492 15.75 27.9577 15.75 27H14.25ZM19.3352 32.1977C17.5166 31.9096 16.0904 30.4834 15.8023 28.6648L14.3208 28.8995C14.7105 31.3599 16.6401 33.2895 19.1005 33.6792L19.3352 32.1977ZM22 33.75C23.2936 33.75 24.4894 33.3219 25.4504 32.6L24.5496 31.4007C23.8393 31.9342 22.9576 32.25 22 32.25V33.75ZM22 15.75C22.9576 15.75 23.8393 16.0658 24.5496 16.5993L25.4504 15.4C24.4894 14.6781 23.2936 14.25 22 14.25V15.75ZM19 24.75L32 24.75V23.25L19 23.25V24.75ZM28.534 20.5877L30.297 21.9855L31.2289 20.8102L29.466 19.4123L28.534 20.5877ZM30.297 26.0145L28.534 27.4123L29.466 28.5877L31.2289 27.1898L30.297 26.0145ZM30.297 21.9855C31.0143 22.5543 31.5012 22.9418 31.8289 23.2682C32.1532 23.5913 32.2225 23.7612 32.2395 23.8673L33.7208 23.6313C33.6294 23.0582 33.2932 22.6096 32.8875 22.2055C32.4852 21.8047 31.9176 21.3562 31.2289 20.8102L30.297 21.9855ZM31.2289 27.1898C31.9175 26.6438 32.4852 26.1953 32.8875 25.7945C33.2932 25.3904 33.6294 24.9418 33.7208 24.3687L32.2395 24.1327C32.2225 24.2388 32.1532 24.4087 31.8289 24.7318C31.5012 25.0582 31.0143 25.4457 30.297 26.0145L31.2289 27.1898ZM32.2395 23.8673C32.2465 23.9117 32.25 23.9559 32.25 24H33.75C33.75 23.8766 33.7402 23.7534 33.7208 23.6313L32.2395 23.8673ZM32.25 24C32.25 24.0441 32.2465 24.0883 32.2395 24.1327L33.7208 24.3687C33.7402 24.2466 33.75 24.1234 33.75 24H32.25ZM32 24.75H33V23.25H32V24.75Z" fill="white"/>
<defs>
<radialGradient id="paint0_radial_1110_9494" cx="0" cy="0" r="1" gradientUnits="userSpaceOnUse" gradientTransform="translate(24 24) rotate(45) scale(33.9411)">
<stop stop-color="#DFDFDF" stop-opacity="0.47"/>
<stop offset="1" stop-color="#CCCCCC" stop-opacity="0.38"/>
</radialGradient>
</defs>
</svg>
