<svg width="56" height="56" viewBox="0 0 56 56" fill="none" xmlns="http://www.w3.org/2000/svg">
<rect width="56" height="56" rx="22" fill="url(#paint0_radial_2065_11838)"/>
<path d="M39.5863 15.1055L29.1105 22.8546L31.0605 18.2856L39.5863 15.1055Z" fill="#E17726"/>
<path fill-rule="evenodd" clip-rule="evenodd" d="M39.6737 15.0575C39.6974 15.1012 39.6853 15.1556 39.6454 15.1852L29.1696 22.9343C29.1334 22.9611 29.0838 22.9603 29.0485 22.9324C29.0132 22.9045 29.001 22.8565 29.0186 22.8151L30.9687 18.2461C30.9794 18.221 30.9999 18.2014 31.0255 18.1918L39.5513 15.0117C39.5978 14.9943 39.65 15.0139 39.6737 15.0575ZM31.1352 18.3637L29.346 22.5559L38.9579 15.4458L31.1352 18.3637Z" fill="#E17726"/>
<path d="M15.4261 15.1055L25.8056 22.9283L23.9519 18.2913L15.4261 15.1055Z" fill="#E27625"/>
<path fill-rule="evenodd" clip-rule="evenodd" d="M15.339 15.0571C15.3628 15.0137 15.4148 14.9944 15.4612 15.0117L23.987 18.1975C24.0133 18.2073 24.0342 18.2278 24.0447 18.2539L25.8983 22.8909C25.9149 22.9324 25.9018 22.9799 25.8663 23.0071C25.8308 23.0342 25.7815 23.0344 25.7458 23.0075L15.3663 15.1847C15.3268 15.1549 15.3151 15.1005 15.339 15.0571ZM16.0348 15.4388L25.5807 22.6335L23.8759 18.3688L16.0348 15.4388Z" fill="#E27625"/>
<path d="M35.8165 33.0698L33.0275 37.327L38.9966 38.971L40.7086 33.1662L35.8165 33.0698Z" fill="#E27625"/>
<path fill-rule="evenodd" clip-rule="evenodd" d="M35.7332 33.0148C35.752 32.9861 35.7842 32.9691 35.8185 32.9697L40.7106 33.0661C40.7417 33.0667 40.7707 33.0818 40.7891 33.1069C40.8074 33.1319 40.813 33.1642 40.8043 33.194L39.0923 38.9987C39.0769 39.0509 39.0226 39.0811 38.9702 39.0666L33.0011 37.4227C32.9704 37.4142 32.9455 37.3916 32.9343 37.3618C32.923 37.332 32.9267 37.2986 32.9442 37.272L35.7332 33.0148ZM35.8697 33.1701L33.1859 37.2668L38.9288 38.8485L40.5761 33.2628L35.8697 33.1701Z" fill="#E27625"/>
<path d="M14.3207 33.1662L16.0213 38.971L21.9791 37.327L19.2014 33.0698L14.3207 33.1662Z" fill="#E27625"/>
<path fill-rule="evenodd" clip-rule="evenodd" d="M19.1995 32.9697C19.2339 32.9691 19.2662 32.9861 19.285 33.0149L22.0627 37.2721C22.08 37.2988 22.0837 37.3321 22.0724 37.3619C22.0612 37.3916 22.0364 37.4142 22.0057 37.4227L16.0479 39.0666C15.9954 39.0811 15.941 39.0508 15.9257 38.9986L14.2251 33.1938C14.2164 33.164 14.222 33.1318 14.2404 33.1068C14.2588 33.0818 14.2877 33.0667 14.3188 33.0661L19.1995 32.9697ZM14.453 33.2628L16.0894 38.8484L21.8212 37.2668L19.1482 33.1701L14.453 33.2628Z" fill="#E27625"/>
<path d="M21.6561 25.8818L20.0009 28.3817L25.9077 28.6481L25.7093 22.2935L21.6561 25.8818Z" fill="#E27625"/>
<path fill-rule="evenodd" clip-rule="evenodd" d="M25.7488 22.2015C25.7843 22.2168 25.8077 22.2513 25.8089 22.2899L26.0074 28.6446C26.0082 28.6723 25.9975 28.6992 25.9777 28.7186C25.958 28.7381 25.931 28.7485 25.9032 28.7472L19.9964 28.4808C19.9606 28.4792 19.9283 28.4584 19.9121 28.4264C19.8958 28.3944 19.898 28.3561 19.9178 28.3262L21.5731 25.8263C21.5779 25.8191 21.5836 25.8125 21.5901 25.8067L25.6433 22.2184C25.6722 22.1928 25.7133 22.1862 25.7488 22.2015ZM21.7321 25.9473L20.1811 28.2896L25.8047 28.5433L25.6163 22.5085L21.7321 25.9473Z" fill="#E27625"/>
<path d="M33.3563 25.8814L29.2465 22.2251L29.1105 28.6534L35.0173 28.387L33.3563 25.8814Z" fill="#E27625"/>
<path fill-rule="evenodd" clip-rule="evenodd" d="M29.2065 22.1338C29.2421 22.1183 29.2835 22.1249 29.3126 22.1507L33.4224 25.807C33.4288 25.8127 33.4345 25.8193 33.4392 25.8264L35.1002 28.332C35.12 28.3619 35.1222 28.4002 35.106 28.4322C35.0897 28.4642 35.0575 28.485 35.0216 28.4866L29.1148 28.7531C29.0872 28.7543 29.0604 28.7441 29.0407 28.7248C29.0209 28.7055 29.0101 28.679 29.0106 28.6514L29.1467 22.2231C29.1475 22.1842 29.1709 22.1493 29.2065 22.1338ZM29.3414 22.4432L29.2122 28.5491L34.8368 28.2954L33.2802 25.9474L29.3414 22.4432Z" fill="#E27625"/>
<path d="M21.9734 37.3267L25.5447 35.6034L22.4666 33.2056L21.9734 37.3267Z" fill="#E27625"/>
<path fill-rule="evenodd" clip-rule="evenodd" d="M22.4283 33.1131C22.4615 33.0993 22.4995 33.1044 22.5279 33.1265L25.606 35.5244C25.6332 35.5456 25.6475 35.5793 25.6439 35.6136C25.6402 35.6478 25.6191 35.6778 25.5881 35.6928L22.0168 37.4161C21.984 37.4319 21.9452 37.4286 21.9155 37.4074C21.8859 37.3863 21.8702 37.3506 21.8745 37.3145L22.3677 33.1933C22.3719 33.1576 22.3951 33.127 22.4283 33.1131ZM22.5446 33.3922L22.094 37.1574L25.3569 35.583L22.5446 33.3922Z" fill="#E27625"/>
<path d="M29.462 35.6034L33.0277 37.3267L32.5402 33.2056L29.462 35.6034Z" fill="#E27625"/>
<path fill-rule="evenodd" clip-rule="evenodd" d="M32.5786 33.1132C32.6118 33.127 32.635 33.1577 32.6392 33.1934L33.1267 37.3146C33.131 37.3507 33.1152 37.3863 33.0856 37.4075C33.0559 37.4286 33.0171 37.4319 32.9844 37.416L29.4187 35.6928C29.3877 35.6778 29.3666 35.6478 29.363 35.6135C29.3593 35.5793 29.3737 35.5456 29.4008 35.5244L32.479 33.1265C32.5073 33.1044 32.5454 33.0993 32.5786 33.1132ZM29.6499 35.5831L32.9074 37.1574L32.462 33.3924L29.6499 35.5831Z" fill="#E27625"/>
<path d="M33.0277 37.3268L29.462 35.6035L29.7511 37.9164L29.7228 38.897L33.0277 37.3268Z" fill="#D5BFB2"/>
<path fill-rule="evenodd" clip-rule="evenodd" d="M29.404 35.5226C29.4337 35.5013 29.4726 35.4979 29.5055 35.5138L33.0711 37.2371C33.1056 37.2538 33.1275 37.2888 33.1274 37.3272C33.1273 37.3656 33.1051 37.4004 33.0705 37.4169L29.7656 38.9871C29.7343 39.002 29.6975 38.9995 29.6684 38.9806C29.6393 38.9616 29.6222 38.9289 29.6232 38.8942L29.6514 37.9212L29.3632 35.6159C29.3587 35.5797 29.3743 35.5439 29.404 35.5226ZM29.5837 35.7731L29.8501 37.9041C29.8507 37.9091 29.851 37.9142 29.8508 37.9193L29.8272 38.7372L32.7971 37.3261L29.5837 35.7731Z" fill="#D5BFB2"/>
<path d="M21.9734 37.3268L25.2896 38.897L25.2669 37.9164L25.5447 35.6035L21.9734 37.3268Z" fill="#D5BFB2"/>
<path fill-rule="evenodd" clip-rule="evenodd" d="M25.6027 35.5225C25.6323 35.5437 25.6481 35.5793 25.6437 35.6155L25.3668 37.9212L25.3893 38.8948C25.3901 38.9294 25.3729 38.9619 25.3439 38.9807C25.3149 38.9995 25.2782 39.002 25.247 38.9872L21.9308 37.417C21.8961 37.4005 21.8739 37.3656 21.8738 37.3272C21.8736 37.2888 21.8956 37.2538 21.9301 37.2371L25.5014 35.5138C25.5342 35.498 25.5731 35.5013 25.6027 35.5225ZM22.2046 37.326L25.1863 38.7379L25.1673 37.9187C25.1672 37.914 25.1675 37.9092 25.168 37.9045L25.4241 35.7725L22.2046 37.326Z" fill="#D5BFB2"/>
<path d="M25.3522 31.6747L22.3875 30.8074L24.4792 29.8438L25.3522 31.6747Z" fill="#233447"/>
<path fill-rule="evenodd" clip-rule="evenodd" d="M24.4372 29.7533C24.4867 29.7305 24.5454 29.7517 24.5689 29.8009L25.4419 31.6319C25.4588 31.6674 25.4533 31.7095 25.4278 31.7394C25.4023 31.7694 25.3616 31.7815 25.3239 31.7705L22.3592 30.9032C22.3193 30.8915 22.2908 30.8563 22.2877 30.8148C22.2847 30.7734 22.3077 30.7344 22.3454 30.717L24.4372 29.7533ZM22.6707 30.7866L25.166 31.5166L24.4313 29.9755L22.6707 30.7866Z" fill="#233447"/>
<path d="M29.6605 31.6747L30.5335 29.8438L32.6366 30.8074L29.6605 31.6747Z" fill="#233447"/>
<path fill-rule="evenodd" clip-rule="evenodd" d="M30.4432 29.8009C30.4667 29.7518 30.5252 29.7305 30.5747 29.7532L32.6778 30.7169C32.7157 30.7342 32.7387 30.7733 32.7357 30.8148C32.7327 30.8563 32.7042 30.8916 32.6642 30.9032L29.6881 31.7705C29.6504 31.7815 29.6097 31.7693 29.5843 31.7394C29.5588 31.7095 29.5533 31.6674 29.5703 31.6319L30.4432 29.8009ZM30.5809 29.9753L29.8459 31.5169L32.3516 30.7867L30.5809 29.9753Z" fill="#233447"/>
<path d="M21.9734 37.327L22.4892 33.0698L19.1957 33.1605L21.9734 37.327Z" fill="#CC6228"/>
<path fill-rule="evenodd" clip-rule="evenodd" d="M22.5631 33.0023C22.5826 33.0237 22.5918 33.0526 22.5883 33.0814L22.0725 37.3386C22.0675 37.38 22.0372 37.4139 21.9966 37.4236C21.956 37.4332 21.9137 37.4166 21.8906 37.3819L19.1129 33.2154C19.0928 33.1852 19.0907 33.1465 19.1073 33.1143C19.124 33.0821 19.1569 33.0615 19.1931 33.0605L22.4866 32.9698C22.5156 32.969 22.5435 32.9808 22.5631 33.0023ZM19.3788 33.2548L21.907 37.0471L22.3765 33.1722L19.3788 33.2548Z" fill="#CC6228"/>
<path d="M32.5175 33.0698L33.0276 37.327L35.8167 33.1605L32.5175 33.0698Z" fill="#CC6228"/>
<path fill-rule="evenodd" clip-rule="evenodd" d="M32.4435 33.0022C32.463 32.9808 32.4909 32.969 32.5199 32.9698L35.8191 33.0605C35.8554 33.0615 35.8883 33.0821 35.9049 33.1144C35.9216 33.1466 35.9194 33.1854 35.8992 33.2155L33.1102 37.3821C33.087 37.4167 33.0447 37.4333 33.0041 37.4235C32.9635 37.4138 32.9333 37.3799 32.9284 37.3385L32.4182 33.0813C32.4147 33.0525 32.424 33.0236 32.4435 33.0022ZM32.6299 33.1722L33.0943 37.0474L35.633 33.2548L32.6299 33.1722Z" fill="#CC6228"/>
<path d="M35.0173 28.3813L29.1105 28.6478L29.6603 31.6749L30.5333 29.8439L32.6364 30.8076L35.0173 28.3813Z" fill="#CC6228"/>
<path fill-rule="evenodd" clip-rule="evenodd" d="M35.1081 28.3408C35.1248 28.3782 35.1169 28.422 35.0882 28.4512L32.7074 30.8774C32.678 30.9074 32.6329 30.9157 32.5947 30.8982L30.5809 29.9754L29.7501 31.7178C29.7315 31.7569 29.6899 31.7795 29.647 31.7737C29.6041 31.768 29.5698 31.7353 29.5621 31.6928L29.0122 28.6657C29.0071 28.6374 29.0144 28.6082 29.0324 28.5857C29.0503 28.5632 29.0771 28.5496 29.1058 28.5483L35.0126 28.2818C35.0535 28.28 35.0914 28.3034 35.1081 28.3408ZM29.2288 28.7423L29.7031 31.3534L30.4432 29.801C30.4666 29.7519 30.5252 29.7306 30.5747 29.7533L32.6141 30.6879L34.7685 28.4924L29.2288 28.7423Z" fill="#CC6228"/>
<path d="M22.3874 30.8076L24.4792 29.8439L25.3522 31.6749L25.902 28.6478L19.9952 28.3813L22.3874 30.8076Z" fill="#CC6228"/>
<path fill-rule="evenodd" clip-rule="evenodd" d="M19.904 28.3409C19.9207 28.3034 19.9586 28.28 19.9996 28.2818L25.9064 28.5483C25.9351 28.5496 25.9619 28.5632 25.9798 28.5857C25.9977 28.6082 26.0051 28.6374 25.9999 28.6657L25.4501 31.6928C25.4423 31.7353 25.4081 31.768 25.3652 31.7737C25.3223 31.7795 25.2806 31.7569 25.262 31.7178L24.4314 29.9756L22.429 30.8982C22.3908 30.9157 22.3458 30.9075 22.3163 30.8776L19.9241 28.4514C19.8953 28.4222 19.8873 28.3783 19.904 28.3409ZM20.2445 28.4924L22.4091 30.6878L24.4373 29.7534C24.4868 29.7306 24.5455 29.7518 24.569 29.801L25.3091 31.3534L25.7834 28.7423L20.2445 28.4924Z" fill="#CC6228"/>
<path d="M19.9952 28.3813L22.4725 33.2054L22.3874 30.8076L19.9952 28.3813Z" fill="#E27525"/>
<path fill-rule="evenodd" clip-rule="evenodd" d="M19.9366 28.3007C19.9765 28.2718 20.0315 28.2764 20.066 28.3114L22.4582 30.7376C22.4758 30.7554 22.486 30.7791 22.4869 30.8041L22.5719 33.202C22.5736 33.2486 22.5426 33.2902 22.4974 33.3019C22.4523 33.3137 22.405 33.2926 22.3836 33.251L19.9064 28.4269C19.8839 28.3832 19.8968 28.3295 19.9366 28.3007ZM20.381 28.9148L22.3569 32.7625L22.289 30.85L20.381 28.9148Z" fill="#E27525"/>
<path d="M32.6364 30.8076L32.5457 33.2054L35.0229 28.3813L32.6364 30.8076Z" fill="#E27525"/>
<path fill-rule="evenodd" clip-rule="evenodd" d="M35.0813 28.3006C35.1212 28.3295 35.1341 28.3831 35.1116 28.4269L32.6344 33.251C32.613 33.2926 32.5657 33.3138 32.5205 33.3019C32.4753 33.2901 32.4444 33.2484 32.4461 33.2017L32.5368 30.8039C32.5378 30.779 32.5479 30.7554 32.5654 30.7377L34.9519 28.3115C34.9864 28.2764 35.0414 28.2718 35.0813 28.3006ZM32.7346 30.85L32.6623 32.7603L34.6358 28.9171L32.7346 30.85Z" fill="#E27525"/>
<path d="M25.902 28.6479L25.3522 31.675L26.0438 35.252L26.1968 30.5413L25.902 28.6479Z" fill="#E27525"/>
<path fill-rule="evenodd" clip-rule="evenodd" d="M25.9034 28.5483C25.952 28.549 25.9931 28.5846 26.0006 28.6327L26.2954 30.526C26.2963 30.5322 26.2967 30.5384 26.2965 30.5446L26.1434 35.2553C26.1418 35.306 26.1023 35.3474 26.0517 35.3514C26.0011 35.3555 25.9556 35.3208 25.946 35.271L25.2544 31.694C25.252 31.6819 25.252 31.6694 25.2542 31.6573L25.804 28.6302C25.8127 28.5823 25.8547 28.5477 25.9034 28.5483ZM25.4536 31.6745L25.973 34.361L26.097 30.5475L25.8945 29.2474L25.4536 31.6745Z" fill="#E27525"/>
<path d="M29.1104 28.6479L28.8213 30.53L28.9687 35.252L29.6603 31.675L29.1104 28.6479Z" fill="#E27525"/>
<path fill-rule="evenodd" clip-rule="evenodd" d="M29.1091 28.5483C29.1578 28.5477 29.1998 28.5823 29.2085 28.6302L29.7584 31.6573C29.7606 31.6694 29.7605 31.6819 29.7582 31.694L29.0666 35.271C29.057 35.3208 29.0114 35.3555 28.9608 35.3514C28.9102 35.3474 28.8707 35.3059 28.8691 35.2552L28.7217 30.5331C28.7215 30.527 28.7219 30.5209 28.7228 30.5149L29.0119 28.6329C29.0193 28.5848 29.0604 28.549 29.1091 28.5483ZM29.1187 29.251L28.9213 30.5361L29.0405 34.3559L29.5589 31.6745L29.1187 29.251Z" fill="#E27525"/>
<path d="M29.6603 31.6749L28.9688 35.2519L29.4676 35.6034L32.5457 33.2055L32.6364 30.8076L29.6603 31.6749Z" fill="#F5841F"/>
<path fill-rule="evenodd" clip-rule="evenodd" d="M32.6978 30.7291C32.723 30.7488 32.7373 30.7794 32.7361 30.8114L32.6454 33.2093C32.6443 33.2387 32.6302 33.2661 32.607 33.2842L29.5289 35.6821C29.4943 35.709 29.4461 35.7102 29.4103 35.6849L28.9114 35.3334C28.8793 35.3109 28.8635 35.2716 28.871 35.233L29.5625 31.6561C29.5696 31.6194 29.5966 31.5898 29.6325 31.5793L32.6086 30.712C32.6393 30.703 32.6725 30.7094 32.6978 30.7291ZM29.7467 31.7537L29.0789 35.2076L29.4647 35.4794L32.4479 33.1554L32.5317 30.9421L29.7467 31.7537Z" fill="#F5841F"/>
<path d="M22.3875 30.8076L22.4725 33.2055L25.5506 35.6034L26.0494 35.2519L25.3522 31.6749L22.3875 30.8076Z" fill="#F5841F"/>
<path fill-rule="evenodd" clip-rule="evenodd" d="M22.326 30.729C22.3512 30.7093 22.3844 30.703 22.4151 30.712L25.3799 31.5793C25.4156 31.5898 25.4426 31.6193 25.4497 31.6559L26.147 35.2329C26.1545 35.2714 26.1387 35.3108 26.1065 35.3334L25.6077 35.6849C25.5718 35.7102 25.5237 35.709 25.489 35.6821L22.4109 33.2842C22.3877 33.2661 22.3736 33.2386 22.3726 33.2091L22.2875 30.8112C22.2864 30.7792 22.3007 30.7486 22.326 30.729ZM22.4917 30.9421L22.5701 33.1555L25.5533 35.4794L25.939 35.2077L25.2657 31.7536L22.4917 30.9421Z" fill="#F5841F"/>
<path d="M29.7226 38.8969L29.7509 37.9162L29.4788 37.6895H25.5221L25.2613 37.9162L25.284 38.8969L21.9678 37.3267L23.1299 38.279L25.4824 39.9003H29.5128L31.8767 38.279L33.0275 37.3267L29.7226 38.8969Z" fill="#C0AC9D"/>
<path fill-rule="evenodd" clip-rule="evenodd" d="M21.8837 37.2734C21.9107 37.2309 21.9651 37.2151 22.0106 37.2367L25.1808 38.7377L25.1618 37.9186C25.1612 37.8889 25.1737 37.8605 25.1961 37.8411L25.4569 37.6143C25.475 37.5985 25.4982 37.5899 25.5223 37.5899H29.479C29.5023 37.5899 29.5249 37.598 29.5428 37.613L29.8149 37.8397C29.8384 37.8593 29.8516 37.8886 29.8508 37.9192L29.8271 38.737L32.9849 37.2367C33.0303 37.2151 33.0847 37.2308 33.1117 37.2732C33.1387 37.3156 33.1299 37.3715 33.0912 37.4035L31.9404 38.3559C31.9381 38.3578 31.9357 38.3596 31.9333 38.3613L29.5694 39.9825C29.5528 39.9939 29.5332 40 29.513 40H25.4826C25.4624 40 25.4426 39.9939 25.426 39.9824L23.0735 38.3612C23.0712 38.3596 23.069 38.3579 23.0669 38.3562L21.9048 37.4038C21.8658 37.3719 21.8568 37.316 21.8837 37.2734ZM22.6591 37.7643L23.19 38.1994L25.5136 39.8007H29.4821L31.8168 38.1994L32.3475 37.7603L29.7656 38.987C29.7342 39.0019 29.6974 38.9994 29.6683 38.9805C29.6393 38.9615 29.6221 38.9288 29.6231 38.8941L29.6501 37.9618L29.4429 37.7892H25.5595L25.3622 37.9608L25.3838 38.8947C25.3846 38.9292 25.3674 38.9617 25.3384 38.9806C25.3094 38.9994 25.2728 39.0019 25.2415 38.9871L22.6591 37.7643Z" fill="#C0AC9D"/>
<path d="M29.4618 35.6034L28.963 35.252H26.0436L25.5447 35.6034L25.267 37.9163L25.5277 37.6895H29.4845L29.7566 37.9163L29.4618 35.6034Z" fill="#161616"/>
<path fill-rule="evenodd" clip-rule="evenodd" d="M25.9862 35.1705C26.003 35.1587 26.0231 35.1523 26.0437 35.1523H28.963C28.9836 35.1523 29.0036 35.1587 29.0204 35.1705L29.5193 35.522C29.5422 35.5381 29.5572 35.5631 29.5608 35.5909L29.8555 37.9037C29.8607 37.9444 29.8405 37.984 29.8046 38.0037C29.7686 38.0234 29.7243 38.0191 29.6929 37.9929L29.4485 37.7892H25.5651L25.3324 37.9915C25.3013 38.0186 25.2568 38.0237 25.2204 38.0044C25.1839 37.9851 25.1632 37.9454 25.1681 37.9044L25.4458 35.5916C25.4492 35.5636 25.4643 35.5383 25.4874 35.522L25.9862 35.1705ZM26.0752 35.3517L25.6385 35.6594L25.3968 37.6714L25.4624 37.6144C25.4805 37.5986 25.5038 37.5899 25.5278 37.5899H29.4846C29.5079 37.5899 29.5305 37.5981 29.5484 37.613L29.6257 37.6775L29.3686 35.6597L28.9315 35.3517H26.0752Z" fill="#161616"/>
<path d="M40.0285 23.3589L40.9072 19.0791L39.5807 15.0996L29.462 22.5937L33.3564 25.8815L38.8551 27.4858L40.0682 26.0686L39.541 25.6888L40.38 24.9235L39.7394 24.4303L40.5784 23.7898L40.0285 23.3589Z" fill="#763E1A"/>
<path fill-rule="evenodd" clip-rule="evenodd" d="M39.6108 15.0046C39.6412 15.0142 39.6652 15.0379 39.6753 15.0682L41.0018 19.0476C41.0074 19.0642 41.0084 19.082 41.0049 19.0992L40.1386 23.3186L40.6399 23.7114C40.6642 23.7304 40.6783 23.7596 40.6781 23.7905C40.6779 23.8213 40.6635 23.8503 40.639 23.869L39.9033 24.4307L40.4409 24.8446C40.4642 24.8626 40.4784 24.89 40.4796 24.9194C40.4809 24.9489 40.469 24.9773 40.4472 24.9972L39.699 25.6797L40.1265 25.9878C40.1492 26.0041 40.1639 26.0291 40.1672 26.0568C40.1706 26.0845 40.1621 26.1123 40.144 26.1335L38.9309 27.5507C38.9054 27.5804 38.8649 27.5925 38.8273 27.5815L33.3286 25.9773C33.3152 25.9734 33.3028 25.9667 33.2922 25.9577L29.3978 22.6699C29.3745 22.6502 29.3615 22.621 29.3625 22.5906C29.3634 22.5601 29.3783 22.5318 29.4028 22.5136L39.5214 15.0196C39.5471 15.0006 39.5803 14.995 39.6108 15.0046ZM29.6227 22.5988L33.4047 25.7918L38.8213 27.3721L39.9221 26.0862L39.4828 25.7697C39.4585 25.7522 39.4433 25.7246 39.4416 25.6946C39.4399 25.6646 39.4517 25.6354 39.4739 25.6152L40.2251 24.93L39.6787 24.5094C39.6541 24.4905 39.6398 24.4612 39.6398 24.4302C39.6399 24.3992 39.6544 24.37 39.679 24.3512L40.4156 23.7888L39.9671 23.4375C39.9374 23.4141 39.9234 23.376 39.931 23.339L40.8042 19.0853L39.5297 15.2616L29.6227 22.5988Z" fill="#763E1A"/>
<path d="M14.0996 19.0849L14.9896 23.3648L14.4171 23.79L15.2674 24.4305L14.6268 24.9237L15.4658 25.689L14.9386 26.0688L16.1517 27.486L21.6503 25.8817L25.5448 22.5939L15.4261 15.1055L14.0996 19.0849Z" fill="#763E1A"/>
<path fill-rule="evenodd" clip-rule="evenodd" d="M15.3961 15.01C15.4266 15.0004 15.4598 15.0059 15.4854 15.0249L25.6041 22.5133C25.6286 22.5314 25.6435 22.5598 25.6444 22.5902C25.6454 22.6207 25.6324 22.6499 25.6091 22.6696L21.7147 25.9574C21.7041 25.9664 21.6917 25.9731 21.6783 25.977L16.1797 27.5812C16.1421 27.5922 16.1015 27.5801 16.076 27.5504L14.8629 26.1332C14.8448 26.112 14.8364 26.0842 14.8397 26.0565C14.843 26.0288 14.8578 26.0038 14.8804 25.9875L15.308 25.6794L14.5597 24.9969C14.5379 24.9771 14.526 24.9486 14.5273 24.9191C14.5285 24.8897 14.5427 24.8623 14.5661 24.8443L15.1029 24.431L14.3571 23.8691C14.3321 23.8502 14.3173 23.8206 14.3174 23.7892C14.3176 23.7578 14.3325 23.7282 14.3577 23.7095L14.8791 23.3223L14.0021 19.1048C13.9985 19.0875 13.9995 19.0697 14.0051 19.053L15.3316 15.0735C15.3417 15.0432 15.3657 15.0196 15.3961 15.01ZM15.4773 15.2669L14.2027 19.0905L15.0872 23.3441C15.0952 23.3821 15.0803 23.4212 15.0491 23.4444L14.5835 23.7901L15.3274 24.3505C15.3523 24.3692 15.3669 24.3985 15.3671 24.4296C15.3673 24.4607 15.3529 24.4901 15.3282 24.5091L14.7819 24.9297L15.533 25.6149C15.5552 25.6351 15.5671 25.6643 15.5653 25.6943C15.5636 25.7243 15.5485 25.7519 15.5241 25.7694L15.0848 26.0859L16.1856 27.3718L21.6022 25.7915L25.3842 22.5986L15.4773 15.2669Z" fill="#763E1A"/>
<path d="M38.8607 27.4802L33.362 25.876L35.0173 28.3759L32.54 33.2L35.8109 33.1603H40.703L38.8607 27.4802Z" fill="#F5841F"/>
<path fill-rule="evenodd" clip-rule="evenodd" d="M33.2818 25.8169C33.3066 25.7833 33.3498 25.7686 33.39 25.7804L38.8886 27.3846C38.9203 27.3939 38.9454 27.4182 38.9555 27.4495L40.7979 33.1296C40.8077 33.1599 40.8024 33.1932 40.7837 33.219C40.7649 33.2448 40.735 33.26 40.7031 33.26H35.811L32.5413 33.2997C32.5064 33.3001 32.4737 33.2822 32.4554 33.2525C32.437 33.2228 32.4355 33.1856 32.4514 33.1545L34.902 28.3823L33.279 25.9311C33.2559 25.8962 33.257 25.8506 33.2818 25.8169ZM33.5954 26.048L35.1004 28.3209C35.1203 28.351 35.1225 28.3894 35.106 28.4215L32.7044 33.0984L35.8097 33.0607L35.811 33.0607H40.566L38.7822 27.5612L33.5954 26.048Z" fill="#F5841F"/>
<path d="M21.656 25.8813L16.1573 27.4856L14.3263 33.1657H19.2071L22.4779 33.2053L20.0007 28.3813L21.656 25.8813Z" fill="#F5841F"/>
<path fill-rule="evenodd" clip-rule="evenodd" d="M21.7363 25.8223C21.7611 25.856 21.7622 25.9016 21.7391 25.9364L20.1161 28.3877L22.5666 33.1599C22.5826 33.191 22.5811 33.2282 22.5627 33.2579C22.5443 33.2876 22.5117 33.3055 22.4768 33.3051L19.2071 33.2654H14.3264C14.2945 33.2654 14.2645 33.2502 14.2458 33.2244C14.227 33.1986 14.2217 33.1655 14.2315 33.1351L16.0625 27.4551C16.0726 27.4236 16.0977 27.3992 16.1294 27.39L21.6281 25.7857C21.6683 25.774 21.7115 25.7886 21.7363 25.8223ZM16.236 27.5665L14.4632 33.0661H19.2071L19.2083 33.0661L22.3137 33.1037L19.9121 28.4269C19.8956 28.3948 19.8977 28.3563 19.9176 28.3263L21.4226 26.0533L16.236 27.5665Z" fill="#F5841F"/>
<path d="M29.1103 28.6476L29.4618 22.5934L31.0547 18.2852H23.9518L25.5447 22.5934L25.8962 28.6476L26.0322 30.5466L26.0435 35.246H28.9629L28.9743 30.5466L29.1103 28.6476Z" fill="#F5841F"/>
<path fill-rule="evenodd" clip-rule="evenodd" d="M23.8702 18.2287C23.8888 18.202 23.9194 18.186 23.952 18.186H31.0549C31.0875 18.186 31.118 18.202 31.1367 18.2287C31.1553 18.2555 31.1597 18.2897 31.1484 18.3203L29.5606 22.6146L29.21 28.6539L29.2099 28.6553L29.0741 30.5508L29.0628 35.2468C29.0627 35.3017 29.0181 35.3462 28.9631 35.3462H26.0437C25.9888 35.3462 25.9442 35.3017 25.9441 35.2468L25.9327 30.5508L25.7969 28.6553L25.7968 28.6539L25.4462 22.6146L23.8585 18.3203C23.8472 18.2897 23.8515 18.2555 23.8702 18.2287ZM24.0951 18.3854L25.6384 22.5594C25.6418 22.5686 25.6438 22.5783 25.6444 22.5882L25.9958 28.641L25.9958 28.6424L26.1318 30.54C26.132 30.5423 26.1321 30.5446 26.1321 30.5469L26.1432 35.1469H28.8637L28.8748 30.5469C28.8748 30.5446 28.8749 30.5423 28.875 30.54L29.011 28.6424L29.0111 28.641L29.3625 22.5882C29.363 22.5783 29.3651 22.5686 29.3685 22.5594L30.9118 18.3854H24.0951Z" fill="#F5841F"/>
<defs>
<radialGradient id="paint0_radial_2065_11838" cx="0" cy="0" r="1" gradientUnits="userSpaceOnUse" gradientTransform="translate(28 28) rotate(45) scale(39.598)">
<stop stop-color="#FFF3F1"/>
<stop offset="1" stop-color="#FFC8B1"/>
</radialGradient>
</defs>
</svg>
