<svg width="56" height="56" viewBox="0 0 56 56" fill="none" xmlns="http://www.w3.org/2000/svg">
<rect width="56" height="56" rx="22" fill="url(#paint0_radial_1019_9505)"/>
<path d="M20.3662 32.5496L21.041 32.2223L20.3662 32.5496ZM21.1751 28.2731L21.6838 28.8243H21.6838L21.1751 28.2731ZM22.3219 25.1372L21.5777 25.2302V25.2302L22.3219 25.1372ZM34.8564 28.3945L35.3668 27.845L35.3668 27.845L34.8564 28.3945ZM35.4783 33.2347L34.8456 32.832L35.4783 33.2347ZM33.6015 25.026L34.3458 25.119V25.119L33.6015 25.026ZM34.8125 28.3538L34.3021 28.9033L34.3021 28.9033L34.8125 28.3538ZM20.4695 32.7627L19.7947 33.09H19.7947L20.4695 32.7627ZM33.6662 24.5091L32.922 24.416V24.416L33.6662 24.5091ZM22.2426 24.5023L22.9868 24.4093V24.4093L22.2426 24.5023ZM25.4834 38.4L26.0834 37.95H26.0834L25.4834 38.4ZM25.7834 37.55C25.5348 37.2186 25.0647 37.1515 24.7334 37.4C24.402 37.6485 24.3348 38.1186 24.5834 38.45L25.7834 37.55ZM31.7834 38.45C32.0319 38.1186 31.9647 37.6485 31.6334 37.4C31.302 37.1515 30.8319 37.2186 30.5834 37.55L31.7834 38.45ZM30.8834 38.4L30.2834 37.95H30.2834L30.8834 38.4ZM27.0999 19.75H28.8029V18.25H27.0999V19.75ZM32.2623 34.25H24.0414V35.75H32.2623V34.25ZM32.922 24.416L32.8573 24.933L34.3458 25.119L34.4104 24.6021L32.922 24.416ZM34.3021 28.9033L34.346 28.9441L35.3668 27.845L35.3229 27.8042L34.3021 28.9033ZM23.0661 25.0442L22.9868 24.4093L21.4984 24.5954L21.5777 25.2302L23.0661 25.0442ZM21.1443 32.4353L21.041 32.2223L19.6914 32.8769L19.7947 33.09L21.1443 32.4353ZM21.041 32.2223C20.4829 31.0718 20.744 29.6915 21.6838 28.8243L20.6665 27.7219C19.2408 29.0375 18.8447 31.1315 19.6914 32.8769L21.041 32.2223ZM21.5777 25.2302C21.6939 26.1592 21.3545 27.0871 20.6665 27.7219L21.6838 28.8243C22.7275 27.8611 23.2423 26.4535 23.0661 25.0442L21.5777 25.2302ZM34.346 28.9441C35.4289 29.9497 35.639 31.5852 34.8456 32.832L36.111 33.6373C37.2932 31.7799 36.9801 29.3432 35.3668 27.845L34.346 28.9441ZM32.8573 24.933C32.6725 26.4117 33.2101 27.8892 34.3021 28.9033L35.3229 27.8042C34.5843 27.1183 34.2207 26.1191 34.3458 25.119L32.8573 24.933ZM24.0414 34.25C22.8079 34.25 21.6827 33.5452 21.1443 32.4353L19.7947 33.09C20.5839 34.7169 22.2332 35.75 24.0414 35.75V34.25ZM32.2623 35.75C33.822 35.75 35.2736 34.9532 36.111 33.6373L34.8456 32.832C34.2835 33.7152 33.3091 34.25 32.2623 34.25V35.75ZM28.8029 19.75C31.2998 19.75 33.2317 21.9384 32.922 24.416L34.4104 24.6021C34.832 21.2292 32.202 18.25 28.8029 18.25V19.75ZM27.0999 18.25C23.7044 18.25 21.0772 21.226 21.4984 24.5954L22.9868 24.4093C22.6775 21.9353 24.6066 19.75 27.0999 19.75V18.25ZM26.0834 37.95L25.7834 37.55L24.5834 38.45L24.8834 38.85L26.0834 37.95ZM30.5834 37.55L30.2834 37.95L31.4834 38.85L31.7834 38.45L30.5834 37.55ZM24.8834 38.85C26.5334 41.05 29.8334 41.05 31.4834 38.85L30.2834 37.95C29.2334 39.35 27.1334 39.35 26.0834 37.95L24.8834 38.85Z" fill="black"/>
<defs>
<radialGradient id="paint0_radial_1019_9505" cx="0" cy="0" r="1" gradientUnits="userSpaceOnUse" gradientTransform="translate(28 28) rotate(45) scale(39.598)">
<stop stop-color="#F1F5FF"/>
<stop offset="1" stop-color="#B1C7FF"/>
</radialGradient>
</defs>
</svg>
