<svg width="56" height="56" viewBox="0 0 56 56" fill="none" xmlns="http://www.w3.org/2000/svg">
<rect width="56" height="56" rx="22" fill="url(#paint0_radial_1019_9504)"/>
<path d="M27.25 35C27.25 35.4142 27.5858 35.75 28 35.75C28.4142 35.75 28.75 35.4142 28.75 35H27.25ZM28.75 21C28.75 20.5858 28.4142 20.25 28 20.25C27.5858 20.25 27.25 20.5858 27.25 21H28.75ZM30.4377 24.4518C30.6448 24.8105 31.1035 24.9334 31.4623 24.7263C31.821 24.5192 31.9439 24.0605 31.7368 23.7017L30.4377 24.4518ZM30.7117 23.4263L30.0622 23.8013V23.8013L30.7117 23.4263ZM27.1301 27.68L27.389 26.9761L27.389 26.9761L27.1301 27.68ZM28.8702 28.32L29.1291 27.6161L29.129 27.6161L28.8702 28.32ZM25.2885 32.5738L24.639 32.9488H24.639L25.2885 32.5738ZM25.5625 31.5483C25.3554 31.1895 24.8967 31.0666 24.538 31.2737C24.1792 31.4808 24.0563 31.9395 24.2634 32.2983L25.5625 31.5483ZM29.3279 33.6561L28.9529 33.0066L29.3279 33.6561ZM26.6723 22.3439L27.0473 22.9934L26.6723 22.3439ZM37.25 28C37.25 33.1086 33.1086 37.25 28 37.25V38.75C33.9371 38.75 38.75 33.9371 38.75 28H37.25ZM28 37.25C22.8914 37.25 18.75 33.1086 18.75 28H17.25C17.25 33.9371 22.0629 38.75 28 38.75V37.25ZM18.75 28C18.75 22.8914 22.8914 18.75 28 18.75V17.25C22.0629 17.25 17.25 22.0629 17.25 28H18.75ZM28 18.75C33.1086 18.75 37.25 22.8914 37.25 28H38.75C38.75 22.0629 33.9371 17.25 28 17.25V18.75ZM31.7368 23.7017L31.3612 23.0513L30.0622 23.8013L30.4377 24.4518L31.7368 23.7017ZM25.9381 32.1988L25.5625 31.5483L24.2634 32.2983L24.639 32.9488L25.9381 32.1988ZM28.6113 29.0239C30.3674 29.6699 30.5734 32.071 28.9529 33.0066L29.7029 34.3056C32.4247 32.7341 32.0788 28.7011 29.1291 27.6161L28.6113 29.0239ZM26.2973 21.6944C23.5755 23.2659 23.9214 27.2989 26.8712 28.3839L27.389 26.9761C25.6328 26.3301 25.4268 23.929 27.0473 22.9934L26.2973 21.6944ZM28.75 35V34.049H27.25V35H28.75ZM28.75 34.049V28H27.25V34.049H28.75ZM28.9529 33.0066C28.6383 33.1882 28.2996 33.2831 27.9624 33.3L28.0376 34.7981C28.6068 34.7695 29.1776 34.6089 29.7029 34.3056L28.9529 33.0066ZM27.9624 33.3C27.1595 33.3403 26.366 32.94 25.9381 32.1988L24.639 32.9488C25.3592 34.1962 26.6945 34.8655 28.0376 34.7981L27.9624 33.3ZM26.8711 28.3839L27.7411 28.7039L28.2589 27.2961L27.389 26.9761L26.8711 28.3839ZM27.7411 28.7039L28.6113 29.0239L29.129 27.6161L28.2589 27.2961L27.7411 28.7039ZM28.75 28L28.75 21.951H27.25L27.25 28H28.75ZM28.75 21.951V21H27.25V21.951H28.75ZM31.3612 23.0513C30.6409 21.8037 29.3055 21.1344 27.9624 21.2019L28.0376 22.7C28.8406 22.6597 29.6342 23.06 30.0622 23.8013L31.3612 23.0513ZM27.9624 21.2019C27.3933 21.2305 26.8226 21.3911 26.2973 21.6944L27.0473 22.9934C27.3619 22.8118 27.7005 22.717 28.0376 22.7L27.9624 21.2019Z" fill="black"/>
<defs>
<radialGradient id="paint0_radial_1019_9504" cx="0" cy="0" r="1" gradientUnits="userSpaceOnUse" gradientTransform="translate(28 28) rotate(45) scale(39.598)">
<stop stop-color="#FFF1FC"/>
<stop offset="1" stop-color="#FFBAF3"/>
</radialGradient>
</defs>
</svg>
