<svg width="56" height="56" viewBox="0 0 56 56" fill="none" xmlns="http://www.w3.org/2000/svg">
<rect width="56" height="56" rx="22" fill="url(#paint0_radial_1110_9486)"/>
<path d="M21.9319 22.3864L21.7495 23.1139L21.9319 22.3864ZM25.3064 20.4381L24.5852 20.2323L25.3064 20.4381ZM19.2384 27.0517L19.7772 26.53L19.2384 27.0517ZM19.2384 30.9483L18.6995 30.4266L18.6995 30.4266L19.2384 30.9483ZM21.9319 35.6136L22.1142 36.3411L21.9319 35.6136ZM25.3064 37.5619L24.5852 37.7677L24.5852 37.7677L25.3064 37.5619ZM30.6935 37.5619L31.4147 37.7677L30.6935 37.5619ZM34.068 35.6136L34.2504 34.8861L34.068 35.6136ZM36.7615 30.9483L36.2227 31.47L36.2227 31.47L36.7615 30.9483ZM36.7615 27.0517L36.2227 26.53L36.2227 26.53L36.7615 27.0517ZM34.068 22.3864L33.8857 21.6589L34.068 22.3864ZM30.6935 20.4381L31.4147 20.2323L30.6935 20.4381ZM21.7495 23.1139C23.6084 23.5799 25.5017 22.4868 26.0276 20.6439L24.5852 20.2323C24.2815 21.2967 23.1879 21.9281 22.1142 21.6589L21.7495 23.1139ZM19.7772 26.53C18.342 25.0475 19.748 22.6122 21.7495 23.1139L22.1142 21.6589C18.6489 20.7903 16.2146 25.0066 18.6995 27.5734L19.7772 26.53ZM19.7772 31.47C21.1102 30.0931 21.1102 27.9069 19.7772 26.53L18.6995 27.5734C19.4694 28.3687 19.4694 29.6314 18.6995 30.4266L19.7772 31.47ZM21.7495 34.8861C19.748 35.3878 18.342 32.9525 19.7772 31.47L18.6995 30.4266C16.2146 32.9934 18.6489 37.2097 22.1142 36.3411L21.7495 34.8861ZM26.0276 37.3561C25.5017 35.5133 23.6084 34.4202 21.7495 34.8861L22.1142 36.3411C23.1879 36.072 24.2815 36.7033 24.5852 37.7677L26.0276 37.3561ZM29.9722 37.3561C29.406 39.3403 26.5939 39.3403 26.0276 37.3561L24.5852 37.7677C25.5656 41.2031 30.4342 41.2031 31.4147 37.7677L29.9722 37.3561ZM34.2504 34.8861C32.3915 34.4202 30.4982 35.5133 29.9722 37.3561L31.4147 37.7677C31.7184 36.7033 32.812 36.072 33.8857 36.3411L34.2504 34.8861ZM36.2227 31.47C37.6579 32.9525 36.2519 35.3878 34.2504 34.8861L33.8857 36.3411C37.351 37.2097 39.7853 32.9934 37.3004 30.4266L36.2227 31.47ZM36.2227 26.53C34.8897 27.9069 34.8897 30.0931 36.2227 31.47L37.3004 30.4266C36.5305 29.6314 36.5305 28.3687 37.3004 27.5734L36.2227 26.53ZM34.2504 23.1139C36.2519 22.6122 37.6579 25.0475 36.2227 26.53L37.3004 27.5734C39.7853 25.0066 37.351 20.7903 33.8857 21.6589L34.2504 23.1139ZM29.9722 20.6439C30.4982 22.4868 32.3915 23.5799 34.2504 23.1139L33.8857 21.6589C32.812 21.9281 31.7184 21.2967 31.4147 20.2323L29.9722 20.6439ZM31.4147 20.2323C30.4342 16.7969 25.5656 16.7969 24.5852 20.2323L26.0276 20.6439C26.5939 18.6597 29.406 18.6597 29.9722 20.6439L31.4147 20.2323ZM24.2499 29C24.2499 31.0711 25.9289 32.75 27.9999 32.75V31.25C26.7573 31.25 25.7499 30.2427 25.7499 29H24.2499ZM27.9999 32.75C30.071 32.75 31.7499 31.0711 31.7499 29H30.2499C30.2499 30.2427 29.2426 31.25 27.9999 31.25V32.75ZM31.7499 29C31.7499 26.9289 30.071 25.25 27.9999 25.25V26.75C29.2426 26.75 30.2499 27.7574 30.2499 29H31.7499ZM27.9999 25.25C25.9289 25.25 24.2499 26.9289 24.2499 29H25.7499C25.7499 27.7574 26.7573 26.75 27.9999 26.75V25.25Z" fill="black"/>
<defs>
<radialGradient id="paint0_radial_1110_9486" cx="0" cy="0" r="1" gradientUnits="userSpaceOnUse" gradientTransform="translate(28 28) rotate(45) scale(39.598)">
<stop stop-color="#EDFCED"/>
<stop offset="1" stop-color="#B8FFB8"/>
</radialGradient>
</defs>
</svg>
