<svg width="56" height="56" viewBox="0 0 56 56" fill="none" xmlns="http://www.w3.org/2000/svg">
<rect width="56" height="56" rx="22" fill="url(#paint0_radial_2065_11861)"/>
<path d="M18.7358 21.6287C23.6763 16.7904 31.6846 16.7904 36.6315 21.6287L37.2259 22.2103C37.4751 22.4532 37.4751 22.843 37.2259 23.0859L35.1934 25.08C35.072 25.2014 34.8675 25.2014 34.746 25.08L33.928 24.2811C30.483 20.9065 24.8906 20.9065 21.4457 24.2811L20.5701 25.1375C20.4486 25.2589 20.2441 25.2589 20.1227 25.1375L18.0839 23.1434C17.8346 22.9005 17.8346 22.5107 18.0839 22.2678L18.7358 21.6287ZM40.837 25.7447L42.6457 27.5151C42.895 27.758 42.895 28.1478 42.6457 28.3907L34.484 36.3862C34.2347 36.6291 33.8385 36.6291 33.5892 36.3862L27.7923 30.7108C27.7284 30.6532 27.6325 30.6532 27.5686 30.7108L21.778 36.3862C21.5288 36.6291 21.1325 36.6291 20.8833 36.3862L12.7151 28.3971C12.4659 28.1542 12.4659 27.7643 12.7151 27.5215L14.5239 25.7511C14.7732 25.5082 15.1694 25.5082 15.4187 25.7511L21.2156 31.4266C21.2795 31.4841 21.3754 31.4841 21.4393 31.4266L27.2298 25.7511C27.4791 25.5082 27.8754 25.5082 28.1246 25.7511L33.9216 31.4266C33.9855 31.4841 34.0813 31.4841 34.1453 31.4266L39.9422 25.7511C40.1851 25.5018 40.5877 25.5018 40.837 25.7447Z" fill="#3A99FB"/>
<defs>
<radialGradient id="paint0_radial_2065_11861" cx="0" cy="0" r="1" gradientUnits="userSpaceOnUse" gradientTransform="translate(28 28) rotate(45) scale(39.598)">
<stop stop-color="#F1F8FF"/>
<stop offset="1" stop-color="#BAE6FF"/>
</radialGradient>
</defs>
</svg>
