<svg width="56" height="56" viewBox="0 0 56 56" fill="none" xmlns="http://www.w3.org/2000/svg">
<rect width="56" height="56" rx="22" fill="url(#paint0_radial_2065_11813)"/>
<path d="M21.3875 38.2632L21.7794 37.6237L21.3875 38.2632ZM19.7368 36.6125L20.3763 36.2206H20.3763L19.7368 36.6125ZM38.2632 36.6125L37.6237 36.2206L38.2632 36.6125ZM36.6125 38.2632L36.2206 37.6237L36.6125 38.2632ZM36.6125 22.7368L36.2206 23.3763L36.6125 22.7368ZM38.2632 24.3875L37.6237 24.7794L38.2632 24.3875ZM21.3875 22.7368L21.7794 23.3763H21.7794L21.3875 22.7368ZM19.7368 24.3875L20.3763 24.7794H20.3763L19.7368 24.3875ZM35.4768 19.5464L36.0181 19.0273V19.0273L35.4768 19.5464ZM20.8442 19.8908L21.2971 20.4886V20.4886L20.8442 19.8908ZM19.8545 20.9227L20.4698 21.3515L19.8545 20.9227ZM36 22.1303H36.75L36.75 22.1266L36 22.1303ZM35.3637 30.6137C35.7779 30.6137 36.1137 30.2779 36.1137 29.8637C36.1137 29.4494 35.7779 29.1137 35.3637 29.1137V30.6137ZM32.6364 29.1137C32.2222 29.1137 31.8864 29.4494 31.8864 29.8637C31.8864 30.2779 32.2222 30.6137 32.6364 30.6137V29.1137ZM27.5 22.75H30.5V21.25H27.5V22.75ZM30.5 38.25H27.5V39.75H30.5V38.25ZM27.5 38.25C25.8488 38.25 24.663 38.2492 23.7381 38.1613C22.8244 38.0744 22.2429 37.9078 21.7794 37.6237L20.9957 38.9027C21.7345 39.3554 22.5726 39.5572 23.5961 39.6545C24.6085 39.7508 25.8778 39.75 27.5 39.75V38.25ZM18.25 30.5C18.25 32.1222 18.2492 33.3915 18.3455 34.4039C18.4428 35.4274 18.6446 36.2655 19.0973 37.0044L20.3763 36.2206C20.0923 35.7571 19.9256 35.1757 19.8388 34.2619C19.7508 33.337 19.75 32.1512 19.75 30.5H18.25ZM21.7794 37.6237C21.2075 37.2733 20.7267 36.7925 20.3763 36.2206L19.0973 37.0044C19.5715 37.7781 20.222 38.4286 20.9957 38.9027L21.7794 37.6237ZM30.5 39.75C32.1222 39.75 33.3915 39.7508 34.4039 39.6545C35.4275 39.5572 36.2656 39.3554 37.0044 38.9027L36.2206 37.6237C35.7571 37.9078 35.1757 38.0744 34.2619 38.1613C33.337 38.2492 32.1513 38.25 30.5 38.25V39.75ZM37.6237 36.2206C37.2733 36.7925 36.7925 37.2733 36.2206 37.6237L37.0044 38.9027C37.7781 38.4286 38.4286 37.7781 38.9027 37.0044L37.6237 36.2206ZM36.2206 23.3763C36.7925 23.7267 37.2733 24.2075 37.6237 24.7794L38.9027 23.9956C38.4286 23.2219 37.7781 22.5714 37.0044 22.0973L36.2206 23.3763ZM27.5 21.25C25.8778 21.25 24.6085 21.2492 23.5961 21.3455C22.5726 21.4428 21.7345 21.6446 20.9957 22.0973L21.7794 23.3763C22.2429 23.0922 22.8244 22.9256 23.7381 22.8387C24.663 22.7508 25.8488 22.75 27.5 22.75V21.25ZM19.75 30.5C19.75 28.8488 19.7508 27.663 19.8388 26.7381C19.9256 25.8243 20.0923 25.2429 20.3763 24.7794L19.0973 23.9956C18.6446 24.7345 18.4428 25.5726 18.3455 26.5961C18.2492 27.6085 18.25 28.8778 18.25 30.5H19.75ZM20.9957 22.0973C20.222 22.5714 19.5715 23.2219 19.0973 23.9956L20.3763 24.7794C20.7267 24.2075 21.2075 23.7267 21.7794 23.3763L20.9957 22.0973ZM27.0531 19.75H32.4218V18.25H27.0531V19.75ZM32.4218 19.75C33.2875 19.75 33.8582 19.7517 34.2814 19.811C34.6797 19.8669 34.8346 19.9604 34.9355 20.0656L36.0181 19.0273C35.5949 18.5861 35.0659 18.4064 34.4896 18.3256C33.9381 18.2483 33.2434 18.25 32.4218 18.25V19.75ZM27.0531 18.25C25.3929 18.25 24.085 18.2489 23.0473 18.3661C21.9937 18.4851 21.1297 18.7337 20.3914 19.2929L21.2971 20.4886C21.7348 20.1571 22.2977 19.9603 23.2157 19.8566C24.1496 19.7511 25.3581 19.75 27.0531 19.75V18.25ZM19.75 27.3956C19.75 25.6306 19.751 24.3647 19.8528 23.3847C19.9534 22.417 20.1455 21.8168 20.4698 21.3515L19.2392 20.4939C18.709 21.2546 18.4739 22.1419 18.3609 23.2297C18.2491 24.3052 18.25 25.6627 18.25 27.3956H19.75ZM20.3914 19.2929C19.9481 19.6287 19.5595 20.0342 19.2392 20.4939L20.4698 21.3515C20.7014 21.0192 20.9808 20.7282 21.2971 20.4886L20.3914 19.2929ZM36.75 22.1266C36.7467 21.45 36.7322 20.8636 36.6475 20.3775C36.5594 19.8723 36.3854 19.4103 36.0181 19.0273L34.9355 20.0656C35.0289 20.1629 35.1131 20.3099 35.1698 20.6351C35.2298 20.9793 35.2466 21.4447 35.25 22.134L36.75 22.1266ZM18.25 27.3956C18.25 28.3713 18.2299 29.2642 18.2503 30.0202L19.7497 29.9798C19.73 29.2482 19.75 28.424 19.75 27.3956H18.25ZM38.5 31.8409H32.6364V33.3409H38.5V31.8409ZM29.1591 29.8637C29.1591 31.7841 30.7159 33.3409 32.6364 33.3409V31.8409C31.5444 31.8409 30.6591 30.9557 30.6591 29.8637H29.1591ZM30.6591 29.8637C30.6591 28.7716 31.5444 27.8864 32.6364 27.8864V26.3864C30.7159 26.3864 29.1591 27.9432 29.1591 29.8637H30.6591ZM35.3637 29.1137H32.6364V30.6137H35.3637V29.1137ZM30.5 22.75C31.8847 22.75 32.9449 22.7503 33.8035 22.8033C34.6613 22.8562 35.261 22.9594 35.7338 23.139L36.2663 21.7367C35.5862 21.4784 34.8119 21.3627 33.8959 21.3061C32.9807 21.2497 31.8674 21.25 30.5 21.25V22.75ZM35.7338 23.139C35.9108 23.2062 36.071 23.2846 36.2206 23.3763L37.0044 22.0973C36.771 21.9543 36.5261 21.8353 36.2663 21.7367L35.7338 23.139ZM35.25 22.1303V22.4378H36.75V22.1303H35.25ZM32.6364 27.8864H38.9444V26.3864H32.6364V27.8864ZM39.75 30.5C39.75 29.1255 39.7504 28.0077 39.693 27.0896L38.1959 27.1832C38.2497 28.0439 38.25 29.108 38.25 30.5H39.75ZM39.693 27.0896C39.6145 25.8348 39.4247 24.8475 38.9027 23.9956L37.6237 24.7794C37.9527 25.3161 38.1224 26.0071 38.1959 27.1832L39.693 27.0896ZM38.25 30.5C38.25 31.2875 38.25 31.9722 38.2399 32.5785L39.7397 32.6034C39.75 31.9821 39.75 31.2839 39.75 30.5H38.25ZM38.2399 32.5785C38.2074 34.537 38.0635 35.5031 37.6237 36.2206L38.9027 37.0044C39.5829 35.8944 39.7077 34.5313 39.7397 32.6034L38.2399 32.5785ZM38.5 33.3409H38.9898V31.8409H38.5V33.3409Z" fill="black"/>
<defs>
<radialGradient id="paint0_radial_2065_11813" cx="0" cy="0" r="1" gradientUnits="userSpaceOnUse" gradientTransform="translate(28 28) rotate(45) scale(39.598)">
<stop stop-color="#F1F5FF"/>
<stop offset="1" stop-color="#B1C7FF"/>
</radialGradient>
</defs>
</svg>
