<svg width="56" height="56" viewBox="0 0 56 56" fill="none" xmlns="http://www.w3.org/2000/svg">
<rect width="56" height="56" rx="22" fill="url(#paint0_radial_1001_9501)"/>
<path d="M21.3877 38.2632L21.7795 37.6237L21.3877 38.2632ZM19.7369 36.6125L20.3764 36.2206H20.3764L19.7369 36.6125ZM38.2634 36.6125L37.6239 36.2206L38.2634 36.6125ZM36.6126 38.2632L36.2208 37.6237L36.6126 38.2632ZM36.6126 22.7368L36.2208 23.3763L36.6126 22.7368ZM38.2634 24.3875L37.6239 24.7794L38.2634 24.3875ZM21.3877 22.7368L21.7795 23.3763H21.7795L21.3877 22.7368ZM19.7369 24.3875L20.3764 24.7794H20.3764L19.7369 24.3875ZM35.4769 19.5464L36.0182 19.0273V19.0273L35.4769 19.5464ZM20.8444 19.8908L21.2972 20.4886V20.4886L20.8444 19.8908ZM19.8546 20.9227L20.4699 21.3515L19.8546 20.9227ZM36.0002 22.1303H36.7502L36.7501 22.1266L36.0002 22.1303ZM35.3638 30.6137C35.778 30.6137 36.1138 30.2779 36.1138 29.8637C36.1138 29.4494 35.778 29.1137 35.3638 29.1137V30.6137ZM32.6365 29.1137C32.2223 29.1137 31.8865 29.4494 31.8865 29.8637C31.8865 30.2779 32.2223 30.6137 32.6365 30.6137V29.1137ZM27.5002 22.75H30.5002V21.25H27.5002V22.75ZM30.5002 38.25H27.5002V39.75H30.5002V38.25ZM27.5002 38.25C25.8489 38.25 24.6632 38.2492 23.7382 38.1613C22.8245 38.0744 22.2431 37.9078 21.7795 37.6237L20.9958 38.9027C21.7346 39.3554 22.5727 39.5572 23.5963 39.6545C24.6086 39.7508 25.878 39.75 27.5002 39.75V38.25ZM18.2502 30.5C18.2502 32.1222 18.2494 33.3915 18.3456 34.4039C18.4429 35.4274 18.6447 36.2655 19.0975 37.0044L20.3764 36.2206C20.0924 35.7571 19.9258 35.1757 19.8389 34.2619C19.7509 33.337 19.7502 32.1512 19.7502 30.5H18.2502ZM21.7795 37.6237C21.2077 37.2733 20.7269 36.7925 20.3764 36.2206L19.0975 37.0044C19.5716 37.7781 20.2221 38.4286 20.9958 38.9027L21.7795 37.6237ZM30.5002 39.75C32.1223 39.75 33.3917 39.7508 34.404 39.6545C35.4276 39.5572 36.2657 39.3554 37.0045 38.9027L36.2208 37.6237C35.7572 37.9078 35.1758 38.0744 34.2621 38.1613C33.3371 38.2492 32.1514 38.25 30.5002 38.25V39.75ZM37.6239 36.2206C37.2734 36.7925 36.7926 37.2733 36.2208 37.6237L37.0045 38.9027C37.7782 38.4286 38.4287 37.7781 38.9028 37.0044L37.6239 36.2206ZM36.2208 23.3763C36.7926 23.7267 37.2734 24.2075 37.6239 24.7794L38.9028 23.9956C38.4287 23.2219 37.7782 22.5714 37.0045 22.0973L36.2208 23.3763ZM27.5002 21.25C25.878 21.25 24.6086 21.2492 23.5963 21.3455C22.5727 21.4428 21.7346 21.6446 20.9958 22.0973L21.7795 23.3763C22.2431 23.0922 22.8245 22.9256 23.7382 22.8387C24.6632 22.7508 25.8489 22.75 27.5002 22.75V21.25ZM19.7502 30.5C19.7502 28.8488 19.7509 27.663 19.8389 26.7381C19.9258 25.8243 20.0924 25.2429 20.3764 24.7794L19.0975 23.9956C18.6447 24.7345 18.4429 25.5726 18.3456 26.5961C18.2494 27.6085 18.2502 28.8778 18.2502 30.5H19.7502ZM20.9958 22.0973C20.2221 22.5714 19.5716 23.2219 19.0975 23.9956L20.3764 24.7794C20.7269 24.2075 21.2077 23.7267 21.7795 23.3763L20.9958 22.0973ZM27.0532 19.75H32.4219V18.25H27.0532V19.75ZM32.4219 19.75C33.2876 19.75 33.8583 19.7517 34.2815 19.811C34.6798 19.8669 34.8347 19.9604 34.9357 20.0656L36.0182 19.0273C35.595 18.5861 35.066 18.4064 34.4897 18.3256C33.9382 18.2483 33.2435 18.25 32.4219 18.25V19.75ZM27.0532 18.25C25.393 18.25 24.0851 18.2489 23.0474 18.3661C21.9938 18.4851 21.1298 18.7337 20.3915 19.2929L21.2972 20.4886C21.7349 20.1571 22.2978 19.9603 23.2158 19.8566C24.1497 19.7511 25.3582 19.75 27.0532 19.75V18.25ZM19.7502 27.3956C19.7502 25.6306 19.7511 24.3647 19.8529 23.3847C19.9535 22.417 20.1456 21.8168 20.4699 21.3515L19.2393 20.4939C18.7091 21.2546 18.474 22.1419 18.361 23.2297C18.2492 24.3052 18.2502 25.6627 18.2502 27.3956H19.7502ZM20.3915 19.2929C19.9482 19.6287 19.5596 20.0342 19.2393 20.4939L20.4699 21.3515C20.7015 21.0192 20.9809 20.7282 21.2972 20.4886L20.3915 19.2929ZM36.7501 22.1266C36.7468 21.45 36.7324 20.8636 36.6476 20.3775C36.5596 19.8723 36.3855 19.4103 36.0182 19.0273L34.9357 20.0656C35.029 20.1629 35.1132 20.3099 35.1699 20.6351C35.2299 20.9793 35.2468 21.4447 35.2502 22.134L36.7501 22.1266ZM18.2502 27.3956C18.2502 28.3713 18.23 29.2642 18.2504 30.0202L19.7499 29.9798C19.7301 29.2482 19.7502 28.424 19.7502 27.3956H18.2502ZM38.5001 31.8409H32.6365V33.3409H38.5001V31.8409ZM29.1592 29.8637C29.1592 31.7841 30.7161 33.3409 32.6365 33.3409V31.8409C31.5445 31.8409 30.6592 30.9557 30.6592 29.8637H29.1592ZM30.6592 29.8637C30.6592 28.7716 31.5445 27.8864 32.6365 27.8864V26.3864C30.7161 26.3864 29.1592 27.9432 29.1592 29.8637H30.6592ZM35.3638 29.1137H32.6365V30.6137H35.3638V29.1137ZM30.5002 22.75C31.8848 22.75 32.9451 22.7503 33.8037 22.8033C34.6614 22.8562 35.2611 22.9594 35.7339 23.139L36.2664 21.7367C35.5863 21.4784 34.8121 21.3627 33.896 21.3061C32.9808 21.2497 31.8675 21.25 30.5002 21.25V22.75ZM35.7339 23.139C35.9109 23.2062 36.0712 23.2846 36.2208 23.3763L37.0045 22.0973C36.7711 21.9543 36.5262 21.8353 36.2664 21.7367L35.7339 23.139ZM35.2502 22.1303V22.4378H36.7502V22.1303H35.2502ZM32.6365 27.8864H38.9446V26.3864H32.6365V27.8864ZM39.7502 30.5C39.7502 29.1255 39.7505 28.0077 39.6931 27.0896L38.196 27.1832C38.2498 28.0439 38.2502 29.108 38.2502 30.5H39.7502ZM39.6931 27.0896C39.6147 25.8348 39.4249 24.8475 38.9028 23.9956L37.6239 24.7794C37.9528 25.3161 38.1225 26.0071 38.196 27.1832L39.6931 27.0896ZM38.2502 30.5C38.2502 31.2875 38.2501 31.9722 38.2401 32.5785L39.7399 32.6034C39.7502 31.9821 39.7502 31.2839 39.7502 30.5H38.2502ZM38.2401 32.5785C38.2075 34.537 38.0636 35.5031 37.6239 36.2206L38.9028 37.0044C39.583 35.8944 39.7079 34.5313 39.7399 32.6034L38.2401 32.5785ZM38.5001 33.3409H38.99V31.8409H38.5001V33.3409Z" fill="black"/>
<defs>
<radialGradient id="paint0_radial_1001_9501" cx="0" cy="0" r="1" gradientUnits="userSpaceOnUse" gradientTransform="translate(28 28) rotate(45) scale(39.598)">
<stop stop-color="#F1F5FF"/>
<stop offset="1" stop-color="#B1C7FF"/>
</radialGradient>
</defs>
</svg>
