<svg width="56" height="56" viewBox="0 0 56 56" fill="none" xmlns="http://www.w3.org/2000/svg">
<rect width="56" height="56" rx="22" fill="url(#paint0_radial_1019_9503)"/>
<g opacity="0.45">
<path d="M18.7359 21.6287C23.6764 16.7904 31.6847 16.7904 36.6316 21.6287L37.226 22.2103C37.4753 22.4532 37.4753 22.843 37.226 23.0859L35.1936 25.08C35.0721 25.2014 34.8676 25.2014 34.7462 25.08L33.9281 24.2811C30.4832 20.9065 24.8907 20.9065 21.4458 24.2811L20.5702 25.1375C20.4488 25.2589 20.2442 25.2589 20.1228 25.1375L18.084 23.1434C17.8347 22.9005 17.8347 22.5107 18.084 22.2678L18.7359 21.6287ZM40.8371 25.7447L42.6458 27.5151C42.8951 27.758 42.8951 28.1478 42.6458 28.3907L34.4841 36.3862C34.2349 36.6291 33.8386 36.6291 33.5893 36.3862L27.7924 30.7108C27.7285 30.6532 27.6326 30.6532 27.5687 30.7108L21.7782 36.3862C21.5289 36.6291 21.1326 36.6291 20.8834 36.3862L12.7153 28.3971C12.466 28.1542 12.466 27.7643 12.7153 27.5215L14.524 25.7511C14.7733 25.5082 15.1695 25.5082 15.4188 25.7511L21.2157 31.4266C21.2796 31.4841 21.3755 31.4841 21.4394 31.4266L27.23 25.7511C27.4792 25.5082 27.8755 25.5082 28.1248 25.7511L33.9217 31.4266C33.9856 31.4841 34.0815 31.4841 34.1454 31.4266L39.9423 25.7511C40.1852 25.5018 40.5878 25.5018 40.8371 25.7447Z" fill="#3A99FB"/>
</g>
<defs>
<radialGradient id="paint0_radial_1019_9503" cx="0" cy="0" r="1" gradientUnits="userSpaceOnUse" gradientTransform="translate(28 28) rotate(45) scale(39.598)">
<stop stop-color="#F1F8FF"/>
<stop offset="1" stop-color="#BAE6FF"/>
</radialGradient>
</defs>
</svg>
